<svg width="159" height="29" viewBox="0 0 159 29" fill="none" xmlns="http://www.w3.org/2000/svg">
<rect width="159" height="29" rx="12" fill="#FB0300" fill-opacity="0.1"/>
<rect x="8.5" y="7" width="15" height="15" rx="7.5" stroke="#FB0300"/>
<circle cx="16" cy="14.5" r="5" fill="#FB0300"/>
<path d="M42.2484 14.988C42.2484 15.7393 42.1294 16.423 41.8914 17.039C41.6534 17.655 41.3174 18.1823 40.8834 18.621C40.4494 19.0597 39.9268 19.4003 39.3154 19.643C38.7088 19.881 38.0368 20 37.2994 20H33.5544V9.969H37.2994C38.0368 9.969 38.7088 10.0903 39.3154 10.333C39.9268 10.571 40.4494 10.9117 40.8834 11.355C41.3174 11.7937 41.6534 12.321 41.8914 12.937C42.1294 13.553 42.2484 14.2367 42.2484 14.988ZM40.8554 14.988C40.8554 14.372 40.7714 13.8213 40.6034 13.336C40.4354 12.8507 40.1974 12.44 39.8894 12.104C39.5814 11.768 39.2081 11.5113 38.7694 11.334C38.3308 11.1567 37.8408 11.068 37.2994 11.068H34.9124V18.901H37.2994C37.8408 18.901 38.3308 18.8123 38.7694 18.635C39.2081 18.4577 39.5814 18.2033 39.8894 17.872C40.1974 17.536 40.4354 17.1253 40.6034 16.64C40.7714 16.1547 40.8554 15.604 40.8554 14.988ZM48.5611 15.681C48.5611 15.3917 48.5191 15.128 48.4351 14.89C48.3558 14.6473 48.2368 14.4397 48.0781 14.267C47.9241 14.0897 47.7351 13.9543 47.5111 13.861C47.2871 13.763 47.0328 13.714 46.7481 13.714C46.1508 13.714 45.6771 13.889 45.3271 14.239C44.9818 14.5843 44.7671 15.065 44.6831 15.681H48.5611ZM49.5691 19.006C49.4151 19.1927 49.2308 19.356 49.0161 19.496C48.8015 19.6313 48.5705 19.7433 48.3231 19.832C48.0805 19.9207 47.8285 19.986 47.5671 20.028C47.3058 20.0747 47.0468 20.098 46.7901 20.098C46.3001 20.098 45.8475 20.0163 45.4321 19.853C45.0215 19.685 44.6645 19.4423 44.3611 19.125C44.0625 18.803 43.8291 18.4063 43.6611 17.935C43.4931 17.4637 43.4091 16.9223 43.4091 16.311C43.4091 15.8163 43.4838 15.3543 43.6331 14.925C43.7871 14.4957 44.0065 14.1247 44.2911 13.812C44.5758 13.4947 44.9235 13.2473 45.3341 13.07C45.7448 12.888 46.2068 12.797 46.7201 12.797C47.1448 12.797 47.5368 12.8693 47.8961 13.014C48.2601 13.154 48.5728 13.3593 48.8341 13.63C49.1001 13.896 49.3078 14.2273 49.4571 14.624C49.6065 15.016 49.6811 15.464 49.6811 15.968C49.6811 16.164 49.6601 16.2947 49.6181 16.36C49.5761 16.4253 49.4968 16.458 49.3801 16.458H44.6411C44.6551 16.906 44.7158 17.2957 44.8231 17.627C44.9351 17.9583 45.0891 18.236 45.2851 18.46C45.4811 18.6793 45.7145 18.845 45.9851 18.957C46.2558 19.0643 46.5591 19.118 46.8951 19.118C47.2078 19.118 47.4761 19.083 47.7001 19.013C47.9288 18.9383 48.1248 18.859 48.2881 18.775C48.4515 18.691 48.5868 18.614 48.6941 18.544C48.8061 18.4693 48.9018 18.432 48.9811 18.432C49.0838 18.432 49.1631 18.4717 49.2191 18.551L49.5691 19.006ZM51.6053 20V13.973L50.8213 13.882C50.7233 13.8587 50.6416 13.8237 50.5763 13.777C50.5156 13.7257 50.4853 13.6533 50.4853 13.56V13.049H51.6053V12.363C51.6053 11.957 51.6613 11.5977 51.7733 11.285C51.8899 10.9677 52.0533 10.7017 52.2633 10.487C52.4779 10.2677 52.7346 10.102 53.0333 9.99C53.3319 9.878 53.6679 9.822 54.0413 9.822C54.3586 9.822 54.6503 9.86867 54.9163 9.962L54.8883 10.585C54.8789 10.697 54.8159 10.7577 54.6993 10.767C54.5873 10.7763 54.4356 10.781 54.2443 10.781C54.0296 10.781 53.8336 10.809 53.6562 10.865C53.4836 10.921 53.3343 11.012 53.2083 11.138C53.0823 11.264 52.9843 11.4297 52.9143 11.635C52.8489 11.8403 52.8163 12.0947 52.8163 12.398V13.049H54.8603V13.952H52.8583V20H51.6053ZM59.8534 16.808C59.2794 16.8267 58.7894 16.8733 58.3834 16.948C57.9821 17.018 57.6531 17.1113 57.3964 17.228C57.1444 17.3447 56.9601 17.4823 56.8434 17.641C56.7314 17.7997 56.6754 17.977 56.6754 18.173C56.6754 18.3597 56.7058 18.5207 56.7664 18.656C56.8271 18.7913 56.9088 18.9033 57.0114 18.992C57.1188 19.076 57.2424 19.139 57.3824 19.181C57.5271 19.2183 57.6811 19.237 57.8444 19.237C58.0638 19.237 58.2644 19.216 58.4464 19.174C58.6284 19.1273 58.7988 19.062 58.9574 18.978C59.1208 18.894 59.2748 18.7937 59.4194 18.677C59.5688 18.5603 59.7134 18.4273 59.8534 18.278V16.808ZM55.8284 13.91C56.2204 13.532 56.6428 13.2497 57.0954 13.063C57.5481 12.8763 58.0498 12.783 58.6004 12.783C58.9971 12.783 59.3494 12.8483 59.6574 12.979C59.9654 13.1097 60.2244 13.2917 60.4344 13.525C60.6444 13.7583 60.8031 14.0407 60.9104 14.372C61.0178 14.7033 61.0714 15.0673 61.0714 15.464V20H60.5184C60.3971 20 60.3038 19.9813 60.2384 19.944C60.1731 19.902 60.1218 19.8227 60.0844 19.706L59.9444 19.034C59.7578 19.2067 59.5758 19.3607 59.3984 19.496C59.2211 19.6267 59.0344 19.7387 58.8384 19.832C58.6424 19.9207 58.4324 19.9883 58.2084 20.035C57.9891 20.0863 57.7441 20.112 57.4734 20.112C57.1981 20.112 56.9391 20.0747 56.6964 20C56.4538 19.9207 56.2414 19.804 56.0594 19.65C55.8821 19.496 55.7398 19.3023 55.6324 19.069C55.5298 18.831 55.4784 18.551 55.4784 18.229C55.4784 17.949 55.5554 17.6807 55.7094 17.424C55.8634 17.1627 56.1131 16.9317 56.4584 16.731C56.8038 16.5303 57.2541 16.367 57.8094 16.241C58.3648 16.1103 59.0461 16.0357 59.8534 16.017V15.464C59.8534 14.9133 59.7344 14.498 59.4964 14.218C59.2584 13.9333 58.9108 13.791 58.4534 13.791C58.1454 13.791 57.8864 13.8307 57.6764 13.91C57.4711 13.9847 57.2914 14.071 57.1374 14.169C56.9881 14.2623 56.8574 14.3487 56.7454 14.428C56.6381 14.5027 56.5308 14.54 56.4234 14.54C56.3394 14.54 56.2671 14.519 56.2064 14.477C56.1458 14.4303 56.0944 14.3743 56.0524 14.309L55.8284 13.91ZM68.8004 12.909V20H68.0584C67.8811 20 67.7691 19.9137 67.7224 19.741L67.6244 18.978C67.3164 19.3187 66.9711 19.594 66.5884 19.804C66.2058 20.0093 65.7671 20.112 65.2724 20.112C64.8851 20.112 64.5421 20.049 64.2434 19.923C63.9494 19.7923 63.7021 19.6103 63.5014 19.377C63.3008 19.1437 63.1491 18.8613 63.0464 18.53C62.9484 18.1987 62.8994 17.8323 62.8994 17.431V12.909H64.1454V17.431C64.1454 17.9677 64.2668 18.383 64.5094 18.677C64.7568 18.971 65.1324 19.118 65.6364 19.118C66.0051 19.118 66.3481 19.0317 66.6654 18.859C66.9874 18.6817 67.2838 18.439 67.5544 18.131V12.909H68.8004ZM72.0641 9.689V20H70.8181V9.689H72.0641ZM76.2617 20.112C75.7017 20.112 75.27 19.9557 74.9667 19.643C74.668 19.3303 74.5187 18.88 74.5187 18.292V13.952H73.6647C73.59 13.952 73.527 13.931 73.4757 13.889C73.4243 13.8423 73.3987 13.7723 73.3987 13.679V13.182L74.5607 13.035L74.8477 10.844C74.8617 10.774 74.892 10.718 74.9387 10.676C74.99 10.6293 75.0553 10.606 75.1347 10.606H75.7647V13.049H77.8157V13.952H75.7647V18.208C75.7647 18.5067 75.837 18.7283 75.9817 18.873C76.1263 19.0177 76.313 19.09 76.5417 19.09C76.6723 19.09 76.7843 19.0737 76.8777 19.041C76.9757 19.0037 77.0597 18.964 77.1297 18.922C77.1997 18.88 77.258 18.8427 77.3047 18.81C77.356 18.7727 77.4003 18.754 77.4377 18.754C77.503 18.754 77.5613 18.7937 77.6127 18.873L77.9767 19.468C77.762 19.6687 77.503 19.8273 77.1997 19.944C76.8963 20.056 76.5837 20.112 76.2617 20.112ZM83.8072 15.681C83.8072 15.3917 83.7652 15.128 83.6812 14.89C83.6019 14.6473 83.4829 14.4397 83.3242 14.267C83.1702 14.0897 82.9812 13.9543 82.7572 13.861C82.5332 13.763 82.2789 13.714 81.9942 13.714C81.3969 13.714 80.9232 13.889 80.5732 14.239C80.2279 14.5843 80.0132 15.065 79.9292 15.681H83.8072ZM84.8152 19.006C84.6612 19.1927 84.4769 19.356 84.2622 19.496C84.0476 19.6313 83.8166 19.7433 83.5692 19.832C83.3266 19.9207 83.0746 19.986 82.8132 20.028C82.5519 20.0747 82.2929 20.098 82.0362 20.098C81.5462 20.098 81.0936 20.0163 80.6782 19.853C80.2676 19.685 79.9106 19.4423 79.6072 19.125C79.3086 18.803 79.0752 18.4063 78.9072 17.935C78.7392 17.4637 78.6552 16.9223 78.6552 16.311C78.6552 15.8163 78.7299 15.3543 78.8792 14.925C79.0332 14.4957 79.2526 14.1247 79.5372 13.812C79.8219 13.4947 80.1696 13.2473 80.5802 13.07C80.9909 12.888 81.4529 12.797 81.9662 12.797C82.3909 12.797 82.7829 12.8693 83.1422 13.014C83.5062 13.154 83.8189 13.3593 84.0802 13.63C84.3462 13.896 84.5539 14.2273 84.7032 14.624C84.8526 15.016 84.9272 15.464 84.9272 15.968C84.9272 16.164 84.9062 16.2947 84.8642 16.36C84.8222 16.4253 84.7429 16.458 84.6262 16.458H79.8872C79.9012 16.906 79.9619 17.2957 80.0692 17.627C80.1812 17.9583 80.3352 18.236 80.5312 18.46C80.7272 18.6793 80.9606 18.845 81.2312 18.957C81.5019 19.0643 81.8052 19.118 82.1412 19.118C82.4539 19.118 82.7222 19.083 82.9462 19.013C83.1749 18.9383 83.3709 18.859 83.5342 18.775C83.6976 18.691 83.8329 18.614 83.9402 18.544C84.0522 18.4693 84.1479 18.432 84.2272 18.432C84.3299 18.432 84.4092 18.4717 84.4652 18.551L84.8152 19.006ZM91.0777 14.596C90.8444 14.2833 90.5924 14.0663 90.3217 13.945C90.051 13.819 89.7477 13.756 89.4117 13.756C88.7537 13.756 88.2474 13.9917 87.8927 14.463C87.538 14.9343 87.3607 15.6063 87.3607 16.479C87.3607 16.941 87.4004 17.3377 87.4797 17.669C87.559 17.9957 87.6757 18.2663 87.8297 18.481C87.9837 18.691 88.1727 18.845 88.3967 18.943C88.6207 19.041 88.875 19.09 89.1597 19.09C89.5704 19.09 89.9274 18.9967 90.2307 18.81C90.5387 18.6233 90.821 18.3597 91.0777 18.019V14.596ZM92.3237 9.689V20H91.5817C91.4044 20 91.2924 19.9137 91.2457 19.741L91.1337 18.88C90.8304 19.244 90.485 19.538 90.0977 19.762C89.7104 19.986 89.2624 20.098 88.7537 20.098C88.3477 20.098 87.979 20.021 87.6477 19.867C87.3164 19.7083 87.034 19.4773 86.8007 19.174C86.5674 18.8707 86.3877 18.4927 86.2617 18.04C86.1357 17.5873 86.0727 17.067 86.0727 16.479C86.0727 15.9563 86.1427 15.471 86.2827 15.023C86.4227 14.5703 86.6234 14.1783 86.8847 13.847C87.146 13.5157 87.4657 13.2567 87.8437 13.07C88.2264 12.8787 88.6557 12.783 89.1317 12.783C89.5657 12.783 89.9367 12.8577 90.2447 13.007C90.5574 13.1517 90.835 13.3547 91.0777 13.616V9.689H92.3237ZM101.129 15.17C101.516 15.17 101.857 15.1187 102.151 15.016C102.449 14.9133 102.699 14.771 102.9 14.589C103.105 14.4023 103.259 14.1807 103.362 13.924C103.464 13.6673 103.516 13.385 103.516 13.077C103.516 12.4377 103.317 11.9383 102.921 11.579C102.529 11.2197 101.931 11.04 101.129 11.04H99.5187V15.17H101.129ZM101.129 9.969C101.763 9.969 102.314 10.0437 102.781 10.193C103.252 10.3377 103.642 10.5453 103.95 10.816C104.258 11.0867 104.486 11.4133 104.636 11.796C104.79 12.1787 104.867 12.6057 104.867 13.077C104.867 13.5437 104.785 13.9707 104.622 14.358C104.458 14.7453 104.218 15.079 103.901 15.359C103.588 15.639 103.198 15.8583 102.732 16.017C102.27 16.171 101.735 16.248 101.129 16.248H99.5187V20H98.1677V9.969H101.129ZM109.906 16.808C109.332 16.8267 108.842 16.8733 108.436 16.948C108.035 17.018 107.706 17.1113 107.449 17.228C107.197 17.3447 107.013 17.4823 106.896 17.641C106.784 17.7997 106.728 17.977 106.728 18.173C106.728 18.3597 106.759 18.5207 106.819 18.656C106.88 18.7913 106.962 18.9033 107.064 18.992C107.172 19.076 107.295 19.139 107.435 19.181C107.58 19.2183 107.734 19.237 107.897 19.237C108.117 19.237 108.317 19.216 108.499 19.174C108.681 19.1273 108.852 19.062 109.01 18.978C109.174 18.894 109.328 18.7937 109.472 18.677C109.622 18.5603 109.766 18.4273 109.906 18.278V16.808ZM105.881 13.91C106.273 13.532 106.696 13.2497 107.148 13.063C107.601 12.8763 108.103 12.783 108.653 12.783C109.05 12.783 109.402 12.8483 109.71 12.979C110.018 13.1097 110.277 13.2917 110.487 13.525C110.697 13.7583 110.856 14.0407 110.963 14.372C111.071 14.7033 111.124 15.0673 111.124 15.464V20H110.571C110.45 20 110.357 19.9813 110.291 19.944C110.226 19.902 110.175 19.8227 110.137 19.706L109.997 19.034C109.811 19.2067 109.629 19.3607 109.451 19.496C109.274 19.6267 109.087 19.7387 108.891 19.832C108.695 19.9207 108.485 19.9883 108.261 20.035C108.042 20.0863 107.797 20.112 107.526 20.112C107.251 20.112 106.992 20.0747 106.749 20C106.507 19.9207 106.294 19.804 106.112 19.65C105.935 19.496 105.793 19.3023 105.685 19.069C105.583 18.831 105.531 18.551 105.531 18.229C105.531 17.949 105.608 17.6807 105.762 17.424C105.916 17.1627 106.166 16.9317 106.511 16.731C106.857 16.5303 107.307 16.367 107.862 16.241C108.418 16.1103 109.099 16.0357 109.906 16.017V15.464C109.906 14.9133 109.787 14.498 109.549 14.218C109.311 13.9333 108.964 13.791 108.506 13.791C108.198 13.791 107.939 13.8307 107.729 13.91C107.524 13.9847 107.344 14.071 107.19 14.169C107.041 14.2623 106.91 14.3487 106.798 14.428C106.691 14.5027 106.584 14.54 106.476 14.54C106.392 14.54 106.32 14.519 106.259 14.477C106.199 14.4303 106.147 14.3743 106.105 14.309L105.881 13.91ZM118.976 12.909L115.021 22.093C114.979 22.1863 114.925 22.261 114.86 22.317C114.799 22.373 114.704 22.401 114.573 22.401H113.649L114.944 19.587L112.018 12.909H113.096C113.203 12.909 113.287 12.937 113.348 12.993C113.413 13.0443 113.458 13.1027 113.481 13.168L115.378 17.634C115.453 17.83 115.516 18.0353 115.567 18.25C115.632 18.0307 115.702 17.823 115.777 17.627L117.618 13.168C117.646 13.0933 117.693 13.0327 117.758 12.986C117.828 12.9347 117.905 12.909 117.989 12.909H118.976ZM120.077 20V12.909H120.826C121.003 12.909 121.113 12.9953 121.155 13.168L121.246 13.896C121.507 13.574 121.801 13.3103 122.128 13.105C122.455 12.8997 122.833 12.797 123.262 12.797C123.738 12.797 124.123 12.93 124.417 13.196C124.716 13.462 124.93 13.8213 125.061 14.274C125.164 14.0173 125.294 13.7957 125.453 13.609C125.616 13.4223 125.798 13.2683 125.999 13.147C126.2 13.0257 126.412 12.937 126.636 12.881C126.865 12.825 127.096 12.797 127.329 12.797C127.702 12.797 128.034 12.8577 128.323 12.979C128.617 13.0957 128.864 13.2683 129.065 13.497C129.27 13.7257 129.427 14.008 129.534 14.344C129.641 14.6753 129.695 15.0557 129.695 15.485V20H128.442V15.485C128.442 14.9297 128.321 14.5097 128.078 14.225C127.835 13.9357 127.485 13.791 127.028 13.791C126.823 13.791 126.627 13.8283 126.44 13.903C126.258 13.973 126.097 14.078 125.957 14.218C125.817 14.358 125.705 14.5353 125.621 14.75C125.542 14.96 125.502 15.205 125.502 15.485V20H124.249V15.485C124.249 14.9157 124.135 14.491 123.906 14.211C123.677 13.931 123.344 13.791 122.905 13.791C122.597 13.791 122.312 13.875 122.051 14.043C121.79 14.2063 121.549 14.4303 121.33 14.715V20H120.077ZM136.335 15.681C136.335 15.3917 136.293 15.128 136.209 14.89C136.129 14.6473 136.01 14.4397 135.852 14.267C135.698 14.0897 135.509 13.9543 135.285 13.861C135.061 13.763 134.806 13.714 134.522 13.714C133.924 13.714 133.451 13.889 133.101 14.239C132.755 14.5843 132.541 15.065 132.457 15.681H136.335ZM137.343 19.006C137.189 19.1927 137.004 19.356 136.79 19.496C136.575 19.6313 136.344 19.7433 136.097 19.832C135.854 19.9207 135.602 19.986 135.341 20.028C135.079 20.0747 134.82 20.098 134.564 20.098C134.074 20.098 133.621 20.0163 133.206 19.853C132.795 19.685 132.438 19.4423 132.135 19.125C131.836 18.803 131.603 18.4063 131.435 17.935C131.267 17.4637 131.183 16.9223 131.183 16.311C131.183 15.8163 131.257 15.3543 131.407 14.925C131.561 14.4957 131.78 14.1247 132.065 13.812C132.349 13.4947 132.697 13.2473 133.108 13.07C133.518 12.888 133.98 12.797 134.494 12.797C134.918 12.797 135.31 12.8693 135.67 13.014C136.034 13.154 136.346 13.3593 136.608 13.63C136.874 13.896 137.081 14.2273 137.231 14.624C137.38 15.016 137.455 15.464 137.455 15.968C137.455 16.164 137.434 16.2947 137.392 16.36C137.35 16.4253 137.27 16.458 137.154 16.458H132.415C132.429 16.906 132.489 17.2957 132.597 17.627C132.709 17.9583 132.863 18.236 133.059 18.46C133.255 18.6793 133.488 18.845 133.759 18.957C134.029 19.0643 134.333 19.118 134.669 19.118C134.981 19.118 135.25 19.083 135.474 19.013C135.702 18.9383 135.898 18.859 136.062 18.775C136.225 18.691 136.36 18.614 136.468 18.544C136.58 18.4693 136.675 18.432 136.755 18.432C136.857 18.432 136.937 18.4717 136.993 18.551L137.343 19.006ZM140.161 13.938C140.315 13.7653 140.478 13.609 140.651 13.469C140.824 13.329 141.006 13.21 141.197 13.112C141.393 13.0093 141.598 12.9323 141.813 12.881C142.032 12.825 142.268 12.797 142.52 12.797C142.907 12.797 143.248 12.8623 143.542 12.993C143.841 13.119 144.088 13.301 144.284 13.539C144.485 13.7723 144.636 14.0547 144.739 14.386C144.842 14.7173 144.893 15.0837 144.893 15.485V20H143.64V15.485C143.64 14.9483 143.516 14.533 143.269 14.239C143.026 13.9403 142.655 13.791 142.156 13.791C141.787 13.791 141.442 13.8797 141.12 14.057C140.803 14.2343 140.509 14.4747 140.238 14.778V20H138.985V12.909H139.734C139.911 12.909 140.021 12.9953 140.063 13.168L140.161 13.938ZM148.873 20.112C148.313 20.112 147.881 19.9557 147.578 19.643C147.279 19.3303 147.13 18.88 147.13 18.292V13.952H146.276C146.201 13.952 146.138 13.931 146.087 13.889C146.036 13.8423 146.01 13.7723 146.01 13.679V13.182L147.172 13.035L147.459 10.844C147.473 10.774 147.503 10.718 147.55 10.676C147.601 10.6293 147.667 10.606 147.746 10.606H148.376V13.049H150.427V13.952H148.376V18.208C148.376 18.5067 148.448 18.7283 148.593 18.873C148.738 19.0177 148.924 19.09 149.153 19.09C149.284 19.09 149.396 19.0737 149.489 19.041C149.587 19.0037 149.671 18.964 149.741 18.922C149.811 18.88 149.869 18.8427 149.916 18.81C149.967 18.7727 150.012 18.754 150.049 18.754C150.114 18.754 150.173 18.7937 150.224 18.873L150.588 19.468C150.373 19.6687 150.114 19.8273 149.811 19.944C149.508 20.056 149.195 20.112 148.873 20.112Z" fill="#FB0300"/>
</svg>
