<svg width="152" height="29" viewBox="0 0 152 29" fill="none" xmlns="http://www.w3.org/2000/svg">
<rect width="152" height="29" rx="12" fill="#1342B7" fill-opacity="0.1"/>
<rect x="8.5" y="7" width="15" height="15" rx="7.5" stroke="#1342B7"/>
<circle cx="16" cy="14.5" r="5" fill="#1342B7"/>
<path d="M39.0387 16.276L37.4637 12.195C37.417 12.0737 37.368 11.9337 37.3167 11.775C37.2653 11.6117 37.2163 11.439 37.1697 11.257C37.0717 11.635 36.9713 11.95 36.8687 12.202L35.2937 16.276H39.0387ZM41.8667 20H40.8167C40.6953 20 40.5973 19.9697 40.5227 19.909C40.448 19.8483 40.392 19.7713 40.3547 19.678L39.4167 17.256H34.9157L33.9777 19.678C33.9497 19.762 33.896 19.8367 33.8167 19.902C33.7373 19.9673 33.6393 20 33.5227 20H32.4727L36.4837 9.969H37.8557L41.8667 20ZM47.3619 14.596C47.1285 14.2833 46.8765 14.0663 46.6059 13.945C46.3352 13.819 46.0319 13.756 45.6959 13.756C45.0379 13.756 44.5315 13.9917 44.1769 14.463C43.8222 14.9343 43.6449 15.6063 43.6449 16.479C43.6449 16.941 43.6845 17.3377 43.7639 17.669C43.8432 17.9957 43.9599 18.2663 44.1139 18.481C44.2679 18.691 44.4569 18.845 44.6809 18.943C44.9049 19.041 45.1592 19.09 45.4439 19.09C45.8545 19.09 46.2115 18.9967 46.5149 18.81C46.8229 18.6233 47.1052 18.3597 47.3619 18.019V14.596ZM48.6079 9.689V20H47.8659C47.6885 20 47.5765 19.9137 47.5299 19.741L47.4179 18.88C47.1145 19.244 46.7692 19.538 46.3819 19.762C45.9945 19.986 45.5465 20.098 45.0379 20.098C44.6319 20.098 44.2632 20.021 43.9319 19.867C43.6005 19.7083 43.3182 19.4773 43.0849 19.174C42.8515 18.8707 42.6719 18.4927 42.5459 18.04C42.4199 17.5873 42.3569 17.067 42.3569 16.479C42.3569 15.9563 42.4269 15.471 42.5669 15.023C42.7069 14.5703 42.9075 14.1783 43.1689 13.847C43.4302 13.5157 43.7499 13.2567 44.1279 13.07C44.5105 12.8787 44.9399 12.783 45.4159 12.783C45.8499 12.783 46.2209 12.8577 46.5289 13.007C46.8415 13.1517 47.1192 13.3547 47.3619 13.616V9.689H48.6079ZM54.4189 16.808C53.8449 16.8267 53.3549 16.8733 52.9489 16.948C52.5475 17.018 52.2185 17.1113 51.9619 17.228C51.7099 17.3447 51.5255 17.4823 51.4089 17.641C51.2969 17.7997 51.2409 17.977 51.2409 18.173C51.2409 18.3597 51.2712 18.5207 51.3319 18.656C51.3925 18.7913 51.4742 18.9033 51.5769 18.992C51.6842 19.076 51.8079 19.139 51.9479 19.181C52.0925 19.2183 52.2465 19.237 52.4099 19.237C52.6292 19.237 52.8299 19.216 53.0119 19.174C53.1939 19.1273 53.3642 19.062 53.5229 18.978C53.6862 18.894 53.8402 18.7937 53.9849 18.677C54.1342 18.5603 54.2789 18.4273 54.4189 18.278V16.808ZM50.3939 13.91C50.7859 13.532 51.2082 13.2497 51.6609 13.063C52.1135 12.8763 52.6152 12.783 53.1659 12.783C53.5625 12.783 53.9149 12.8483 54.2229 12.979C54.5309 13.1097 54.7899 13.2917 54.9999 13.525C55.2099 13.7583 55.3685 14.0407 55.4759 14.372C55.5832 14.7033 55.6369 15.0673 55.6369 15.464V20H55.0839C54.9625 20 54.8692 19.9813 54.8039 19.944C54.7385 19.902 54.6872 19.8227 54.6499 19.706L54.5099 19.034C54.3232 19.2067 54.1412 19.3607 53.9639 19.496C53.7865 19.6267 53.5999 19.7387 53.4039 19.832C53.2079 19.9207 52.9979 19.9883 52.7739 20.035C52.5545 20.0863 52.3095 20.112 52.0389 20.112C51.7635 20.112 51.5045 20.0747 51.2619 20C51.0192 19.9207 50.8069 19.804 50.6249 19.65C50.4475 19.496 50.3052 19.3023 50.1979 19.069C50.0952 18.831 50.0439 18.551 50.0439 18.229C50.0439 17.949 50.1209 17.6807 50.2749 17.424C50.4289 17.1627 50.6785 16.9317 51.0239 16.731C51.3692 16.5303 51.8195 16.367 52.3749 16.241C52.9302 16.1103 53.6115 16.0357 54.4189 16.017V15.464C54.4189 14.9133 54.2999 14.498 54.0619 14.218C53.8239 13.9333 53.4762 13.791 53.0189 13.791C52.7109 13.791 52.4519 13.8307 52.2419 13.91C52.0365 13.9847 51.8569 14.071 51.7029 14.169C51.5535 14.2623 51.4229 14.3487 51.3109 14.428C51.2035 14.5027 51.0962 14.54 50.9889 14.54C50.9049 14.54 50.8325 14.519 50.7719 14.477C50.7112 14.4303 50.6599 14.3743 50.6179 14.309L50.3939 13.91ZM58.7109 13.938C58.8649 13.7653 59.0282 13.609 59.2009 13.469C59.3735 13.329 59.5555 13.21 59.7469 13.112C59.9429 13.0093 60.1482 12.9323 60.3629 12.881C60.5822 12.825 60.8179 12.797 61.0699 12.797C61.4572 12.797 61.7979 12.8623 62.0919 12.993C62.3905 13.119 62.6379 13.301 62.8339 13.539C63.0345 13.7723 63.1862 14.0547 63.2889 14.386C63.3915 14.7173 63.4429 15.0837 63.4429 15.485V20H62.1899V15.485C62.1899 14.9483 62.0662 14.533 61.8189 14.239C61.5762 13.9403 61.2052 13.791 60.7059 13.791C60.3372 13.791 59.9919 13.8797 59.6699 14.057C59.3525 14.2343 59.0585 14.4747 58.7879 14.778V20H57.5349V12.909H58.2839C58.4612 12.909 58.5709 12.9953 58.6129 13.168L58.7109 13.938ZM70.2765 14.169C70.2392 14.2203 70.2018 14.26 70.1645 14.288C70.1272 14.316 70.0758 14.33 70.0105 14.33C69.9405 14.33 69.8635 14.302 69.7795 14.246C69.6955 14.1853 69.5905 14.12 69.4645 14.05C69.3432 13.98 69.1915 13.917 69.0095 13.861C68.8322 13.8003 68.6128 13.77 68.3515 13.77C68.0015 13.77 67.6935 13.833 67.4275 13.959C67.1615 14.0803 66.9375 14.2577 66.7555 14.491C66.5782 14.7243 66.4428 15.0067 66.3495 15.338C66.2608 15.6693 66.2165 16.0403 66.2165 16.451C66.2165 16.8803 66.2655 17.263 66.3635 17.599C66.4615 17.9303 66.5992 18.2103 66.7765 18.439C66.9585 18.663 67.1755 18.8357 67.4275 18.957C67.6842 19.0737 67.9712 19.132 68.2885 19.132C68.5918 19.132 68.8415 19.097 69.0375 19.027C69.2335 18.9523 69.3945 18.8707 69.5205 18.782C69.6512 18.6933 69.7585 18.614 69.8425 18.544C69.9312 18.4693 70.0175 18.432 70.1015 18.432C70.2042 18.432 70.2835 18.4717 70.3395 18.551L70.6895 19.006C70.5355 19.1973 70.3605 19.3607 70.1645 19.496C69.9685 19.6313 69.7562 19.7457 69.5275 19.839C69.3035 19.9277 69.0678 19.993 68.8205 20.035C68.5732 20.077 68.3212 20.098 68.0645 20.098C67.6212 20.098 67.2082 20.0163 66.8255 19.853C66.4475 19.6897 66.1185 19.454 65.8385 19.146C65.5585 18.8333 65.3392 18.4507 65.1805 17.998C65.0218 17.5453 64.9425 17.0297 64.9425 16.451C64.9425 15.9237 65.0148 15.436 65.1595 14.988C65.3088 14.54 65.5235 14.155 65.8035 13.833C66.0882 13.5063 66.4358 13.252 66.8465 13.07C67.2618 12.888 67.7378 12.797 68.2745 12.797C68.7738 12.797 69.2125 12.8787 69.5905 13.042C69.9732 13.2007 70.3115 13.427 70.6055 13.721L70.2765 14.169ZM76.65 15.681C76.65 15.3917 76.608 15.128 76.524 14.89C76.4447 14.6473 76.3257 14.4397 76.167 14.267C76.013 14.0897 75.824 13.9543 75.6 13.861C75.376 13.763 75.1217 13.714 74.837 13.714C74.2397 13.714 73.766 13.889 73.416 14.239C73.0707 14.5843 72.856 15.065 72.772 15.681H76.65ZM77.658 19.006C77.504 19.1927 77.3197 19.356 77.105 19.496C76.8903 19.6313 76.6593 19.7433 76.412 19.832C76.1693 19.9207 75.9173 19.986 75.656 20.028C75.3947 20.0747 75.1357 20.098 74.879 20.098C74.389 20.098 73.9363 20.0163 73.521 19.853C73.1103 19.685 72.7533 19.4423 72.45 19.125C72.1513 18.803 71.918 18.4063 71.75 17.935C71.582 17.4637 71.498 16.9223 71.498 16.311C71.498 15.8163 71.5727 15.3543 71.722 14.925C71.876 14.4957 72.0953 14.1247 72.38 13.812C72.6647 13.4947 73.0123 13.2473 73.423 13.07C73.8337 12.888 74.2957 12.797 74.809 12.797C75.2337 12.797 75.6257 12.8693 75.985 13.014C76.349 13.154 76.6617 13.3593 76.923 13.63C77.189 13.896 77.3967 14.2273 77.546 14.624C77.6953 15.016 77.77 15.464 77.77 15.968C77.77 16.164 77.749 16.2947 77.707 16.36C77.665 16.4253 77.5857 16.458 77.469 16.458H72.73C72.744 16.906 72.8047 17.2957 72.912 17.627C73.024 17.9583 73.178 18.236 73.374 18.46C73.57 18.6793 73.8033 18.845 74.074 18.957C74.3447 19.0643 74.648 19.118 74.984 19.118C75.2967 19.118 75.565 19.083 75.789 19.013C76.0177 18.9383 76.2137 18.859 76.377 18.775C76.5403 18.691 76.6757 18.614 76.783 18.544C76.895 18.4693 76.9907 18.432 77.07 18.432C77.1727 18.432 77.252 18.4717 77.308 18.551L77.658 19.006ZM83.9205 14.596C83.6871 14.2833 83.4351 14.0663 83.1645 13.945C82.8938 13.819 82.5905 13.756 82.2545 13.756C81.5965 13.756 81.0901 13.9917 80.7355 14.463C80.3808 14.9343 80.2035 15.6063 80.2035 16.479C80.2035 16.941 80.2431 17.3377 80.3225 17.669C80.4018 17.9957 80.5185 18.2663 80.6725 18.481C80.8265 18.691 81.0155 18.845 81.2395 18.943C81.4635 19.041 81.7178 19.09 82.0025 19.09C82.4131 19.09 82.7701 18.9967 83.0735 18.81C83.3815 18.6233 83.6638 18.3597 83.9205 18.019V14.596ZM85.1665 9.689V20H84.4245C84.2471 20 84.1351 19.9137 84.0885 19.741L83.9765 18.88C83.6731 19.244 83.3278 19.538 82.9405 19.762C82.5531 19.986 82.1051 20.098 81.5965 20.098C81.1905 20.098 80.8218 20.021 80.4905 19.867C80.1591 19.7083 79.8768 19.4773 79.6435 19.174C79.4101 18.8707 79.2305 18.4927 79.1045 18.04C78.9785 17.5873 78.9155 17.067 78.9155 16.479C78.9155 15.9563 78.9855 15.471 79.1255 15.023C79.2655 14.5703 79.4661 14.1783 79.7275 13.847C79.9888 13.5157 80.3085 13.2567 80.6865 13.07C81.0691 12.8787 81.4985 12.783 81.9745 12.783C82.4085 12.783 82.7795 12.8577 83.0875 13.007C83.4001 13.1517 83.6778 13.3547 83.9205 13.616V9.689H85.1665ZM93.9715 15.17C94.3588 15.17 94.6995 15.1187 94.9935 15.016C95.2922 14.9133 95.5418 14.771 95.7425 14.589C95.9478 14.4023 96.1018 14.1807 96.2045 13.924C96.3072 13.6673 96.3585 13.385 96.3585 13.077C96.3585 12.4377 96.1602 11.9383 95.7635 11.579C95.3715 11.2197 94.7742 11.04 93.9715 11.04H92.3615V15.17H93.9715ZM93.9715 9.969C94.6062 9.969 95.1568 10.0437 95.6235 10.193C96.0948 10.3377 96.4845 10.5453 96.7925 10.816C97.1005 11.0867 97.3292 11.4133 97.4785 11.796C97.6325 12.1787 97.7095 12.6057 97.7095 13.077C97.7095 13.5437 97.6278 13.9707 97.4645 14.358C97.3012 14.7453 97.0608 15.079 96.7435 15.359C96.4308 15.639 96.0412 15.8583 95.5745 16.017C95.1125 16.171 94.5782 16.248 93.9715 16.248H92.3615V20H91.0105V9.969H93.9715ZM102.749 16.808C102.175 16.8267 101.685 16.8733 101.279 16.948C100.878 17.018 100.549 17.1113 100.292 17.228C100.04 17.3447 99.8556 17.4823 99.7389 17.641C99.6269 17.7997 99.5709 17.977 99.5709 18.173C99.5709 18.3597 99.6013 18.5207 99.6619 18.656C99.7226 18.7913 99.8043 18.9033 99.9069 18.992C100.014 19.076 100.138 19.139 100.278 19.181C100.423 19.2183 100.577 19.237 100.74 19.237C100.959 19.237 101.16 19.216 101.342 19.174C101.524 19.1273 101.694 19.062 101.853 18.978C102.016 18.894 102.17 18.7937 102.315 18.677C102.464 18.5603 102.609 18.4273 102.749 18.278V16.808ZM98.7239 13.91C99.1159 13.532 99.5383 13.2497 99.9909 13.063C100.444 12.8763 100.945 12.783 101.496 12.783C101.893 12.783 102.245 12.8483 102.553 12.979C102.861 13.1097 103.12 13.2917 103.33 13.525C103.54 13.7583 103.699 14.0407 103.806 14.372C103.913 14.7033 103.967 15.0673 103.967 15.464V20H103.414C103.293 20 103.199 19.9813 103.134 19.944C103.069 19.902 103.017 19.8227 102.98 19.706L102.84 19.034C102.653 19.2067 102.471 19.3607 102.294 19.496C102.117 19.6267 101.93 19.7387 101.734 19.832C101.538 19.9207 101.328 19.9883 101.104 20.035C100.885 20.0863 100.64 20.112 100.369 20.112C100.094 20.112 99.8346 20.0747 99.5919 20C99.3493 19.9207 99.1369 19.804 98.9549 19.65C98.7776 19.496 98.6353 19.3023 98.5279 19.069C98.4253 18.831 98.3739 18.551 98.3739 18.229C98.3739 17.949 98.4509 17.6807 98.6049 17.424C98.7589 17.1627 99.0086 16.9317 99.3539 16.731C99.6993 16.5303 100.15 16.367 100.705 16.241C101.26 16.1103 101.942 16.0357 102.749 16.017V15.464C102.749 14.9133 102.63 14.498 102.392 14.218C102.154 13.9333 101.806 13.791 101.349 13.791C101.041 13.791 100.782 13.8307 100.572 13.91C100.367 13.9847 100.187 14.071 100.033 14.169C99.8836 14.2623 99.7529 14.3487 99.6409 14.428C99.5336 14.5027 99.4263 14.54 99.3189 14.54C99.2349 14.54 99.1626 14.519 99.1019 14.477C99.0413 14.4303 98.9899 14.3743 98.9479 14.309L98.7239 13.91ZM111.819 12.909L107.864 22.093C107.822 22.1863 107.768 22.261 107.703 22.317C107.642 22.373 107.547 22.401 107.416 22.401H106.492L107.787 19.587L104.861 12.909H105.939C106.046 12.909 106.13 12.937 106.191 12.993C106.256 13.0443 106.301 13.1027 106.324 13.168L108.221 17.634C108.296 17.83 108.359 18.0353 108.41 18.25C108.475 18.0307 108.545 17.823 108.62 17.627L110.461 13.168C110.489 13.0933 110.536 13.0327 110.601 12.986C110.671 12.9347 110.748 12.909 110.832 12.909H111.819ZM112.92 20V12.909H113.669C113.846 12.909 113.956 12.9953 113.998 13.168L114.089 13.896C114.35 13.574 114.644 13.3103 114.971 13.105C115.297 12.8997 115.675 12.797 116.105 12.797C116.581 12.797 116.966 12.93 117.26 13.196C117.558 13.462 117.773 13.8213 117.904 14.274C118.006 14.0173 118.137 13.7957 118.296 13.609C118.459 13.4223 118.641 13.2683 118.842 13.147C119.042 13.0257 119.255 12.937 119.479 12.881C119.707 12.825 119.938 12.797 120.172 12.797C120.545 12.797 120.876 12.8577 121.166 12.979C121.46 13.0957 121.707 13.2683 121.908 13.497C122.113 13.7257 122.269 14.008 122.377 14.344C122.484 14.6753 122.538 15.0557 122.538 15.485V20H121.285V15.485C121.285 14.9297 121.163 14.5097 120.921 14.225C120.678 13.9357 120.328 13.791 119.871 13.791C119.665 13.791 119.469 13.8283 119.283 13.903C119.101 13.973 118.94 14.078 118.8 14.218C118.66 14.358 118.548 14.5353 118.464 14.75C118.384 14.96 118.345 15.205 118.345 15.485V20H117.092V15.485C117.092 14.9157 116.977 14.491 116.749 14.211C116.52 13.931 116.186 13.791 115.748 13.791C115.44 13.791 115.155 13.875 114.894 14.043C114.632 14.2063 114.392 14.4303 114.173 14.715V20H112.92ZM129.177 15.681C129.177 15.3917 129.135 15.128 129.051 14.89C128.972 14.6473 128.853 14.4397 128.694 14.267C128.54 14.0897 128.351 13.9543 128.127 13.861C127.903 13.763 127.649 13.714 127.364 13.714C126.767 13.714 126.293 13.889 125.943 14.239C125.598 14.5843 125.383 15.065 125.299 15.681H129.177ZM130.185 19.006C130.031 19.1927 129.847 19.356 129.632 19.496C129.418 19.6313 129.187 19.7433 128.939 19.832C128.697 19.9207 128.445 19.986 128.183 20.028C127.922 20.0747 127.663 20.098 127.406 20.098C126.916 20.098 126.464 20.0163 126.048 19.853C125.638 19.685 125.281 19.4423 124.977 19.125C124.679 18.803 124.445 18.4063 124.277 17.935C124.109 17.4637 124.025 16.9223 124.025 16.311C124.025 15.8163 124.1 15.3543 124.249 14.925C124.403 14.4957 124.623 14.1247 124.907 13.812C125.192 13.4947 125.54 13.2473 125.95 13.07C126.361 12.888 126.823 12.797 127.336 12.797C127.761 12.797 128.153 12.8693 128.512 13.014C128.876 13.154 129.189 13.3593 129.45 13.63C129.716 13.896 129.924 14.2273 130.073 14.624C130.223 15.016 130.297 15.464 130.297 15.968C130.297 16.164 130.276 16.2947 130.234 16.36C130.192 16.4253 130.113 16.458 129.996 16.458H125.257C125.271 16.906 125.332 17.2957 125.439 17.627C125.551 17.9583 125.705 18.236 125.901 18.46C126.097 18.6793 126.331 18.845 126.601 18.957C126.872 19.0643 127.175 19.118 127.511 19.118C127.824 19.118 128.092 19.083 128.316 19.013C128.545 18.9383 128.741 18.859 128.904 18.775C129.068 18.691 129.203 18.614 129.31 18.544C129.422 18.4693 129.518 18.432 129.597 18.432C129.7 18.432 129.779 18.4717 129.835 18.551L130.185 19.006ZM133.004 13.938C133.158 13.7653 133.321 13.609 133.494 13.469C133.666 13.329 133.848 13.21 134.04 13.112C134.236 13.0093 134.441 12.9323 134.656 12.881C134.875 12.825 135.111 12.797 135.363 12.797C135.75 12.797 136.091 12.8623 136.385 12.993C136.683 13.119 136.931 13.301 137.127 13.539C137.327 13.7723 137.479 14.0547 137.582 14.386C137.684 14.7173 137.736 15.0837 137.736 15.485V20H136.483V15.485C136.483 14.9483 136.359 14.533 136.112 14.239C135.869 13.9403 135.498 13.791 134.999 13.791C134.63 13.791 134.285 13.8797 133.963 14.057C133.645 14.2343 133.351 14.4747 133.081 14.778V20H131.828V12.909H132.577C132.754 12.909 132.864 12.9953 132.906 13.168L133.004 13.938ZM141.716 20.112C141.156 20.112 140.724 19.9557 140.421 19.643C140.122 19.3303 139.973 18.88 139.973 18.292V13.952H139.119C139.044 13.952 138.981 13.931 138.93 13.889C138.878 13.8423 138.853 13.7723 138.853 13.679V13.182L140.015 13.035L140.302 10.844C140.316 10.774 140.346 10.718 140.393 10.676C140.444 10.6293 140.509 10.606 140.589 10.606H141.219V13.049H143.27V13.952H141.219V18.208C141.219 18.5067 141.291 18.7283 141.436 18.873C141.58 19.0177 141.767 19.09 141.996 19.09C142.126 19.09 142.238 19.0737 142.332 19.041C142.43 19.0037 142.514 18.964 142.584 18.922C142.654 18.88 142.712 18.8427 142.759 18.81C142.81 18.7727 142.854 18.754 142.892 18.754C142.957 18.754 143.015 18.7937 143.067 18.873L143.431 19.468C143.216 19.6687 142.957 19.8273 142.654 19.944C142.35 20.056 142.038 20.112 141.716 20.112Z" fill="#1342B7"/>
</svg>
