<svg width="18" height="22" viewBox="0 0 18 22" fill="none" xmlns="http://www.w3.org/2000/svg">
<path d="M2.45003 12.8599L3.09256 13.2468L3.09424 13.244L2.45003 12.8599ZM1.30003 14.7699L0.657502 14.3831L0.657388 14.3833L1.30003 14.7699ZM2.38003 17.6999L2.13958 18.4104L2.14236 18.4113L2.38003 17.6999ZM15.65 17.6999L15.4146 16.9878L15.4124 16.9886L15.65 17.6999ZM16.73 14.7699L17.3731 14.3841L17.3726 14.3831L16.73 14.7699ZM15.58 12.8599L14.9303 13.2348L14.9375 13.2468L15.58 12.8599ZM10.87 2.19994L10.6609 2.9202C10.9354 2.99988 11.2312 2.91667 11.4239 2.70562C11.6166 2.49457 11.6726 2.19236 11.5683 1.92629L10.87 2.19994ZM9.91003 1.99994L9.817 2.74415L9.81978 2.74449L9.91003 1.99994ZM7.17003 2.19994L6.47173 1.92629C6.36744 2.1924 6.42348 2.49466 6.61623 2.70571C6.80897 2.91676 7.10492 2.99991 7.37938 2.92013L7.17003 2.19994ZM9.02003 1.15994C5.29581 1.15994 2.27003 4.18573 2.27003 7.90994H3.77003C3.77003 5.01416 6.12424 2.65994 9.02003 2.65994V1.15994ZM2.27003 7.90994V10.7999H3.77003V7.90994H2.27003ZM2.27003 10.7999C2.27003 11.0146 2.22145 11.3286 2.1286 11.6631C2.03582 11.9973 1.91553 12.2919 1.80582 12.4759L3.09424 13.244C3.29453 12.908 3.45923 12.4776 3.57395 12.0643C3.6886 11.6513 3.77003 11.1953 3.77003 10.7999H2.27003ZM1.8075 12.4731L0.657502 14.3831L1.94255 15.1568L3.09255 13.2468L1.8075 12.4731ZM0.657388 14.3833C0.196351 15.1495 0.100149 16.0091 0.382945 16.7729C0.665414 17.5357 1.29717 18.1252 2.13958 18.4104L2.62047 16.9895C2.16288 16.8347 1.89964 16.5492 1.78961 16.252C1.6799 15.9557 1.6937 15.5704 1.94267 15.1566L0.657388 14.3833ZM2.14236 18.4113C6.60661 19.9028 11.4234 19.9028 15.8877 18.4113L15.4124 16.9886C11.2566 18.3771 6.77344 18.3771 2.61769 16.9886L2.14236 18.4113ZM15.8854 18.412C17.5545 17.8603 18.2789 15.8937 17.3731 14.3841L16.0869 15.1558C16.5012 15.8462 16.1656 16.7396 15.4146 16.9878L15.8854 18.412ZM17.3726 14.3831L16.2226 12.4731L14.9375 13.2468L16.0875 15.1568L17.3726 14.3831ZM16.2297 12.4851C16.1218 12.2981 16.0028 12.0005 15.9108 11.6653C15.8187 11.3293 15.77 11.0148 15.77 10.7999H14.27C14.27 11.1951 14.3514 11.6506 14.4642 12.0621C14.5773 12.4743 14.7383 12.9018 14.9304 13.2347L16.2297 12.4851ZM15.77 10.7999V7.90994H14.27V10.7999H15.77ZM15.77 7.90994C15.77 4.19573 12.7342 1.15994 9.02003 1.15994V2.65994C11.9058 2.65994 14.27 5.02416 14.27 7.90994H15.77ZM11.0791 1.47968C10.7365 1.38022 10.3765 1.301 10.0003 1.25539L9.81978 2.74449C10.1035 2.77889 10.3835 2.83966 10.6609 2.9202L11.0791 1.47968ZM10.0031 1.25573C8.94746 1.12378 7.92423 1.19965 6.96067 1.47975L7.37938 2.92013C8.13583 2.70023 8.95259 2.6361 9.817 2.74415L10.0031 1.25573ZM7.86832 2.4736C8.04887 2.01288 8.49717 1.68994 9.02003 1.68994V0.189941C7.86288 0.189941 6.87118 0.907006 6.47173 1.92629L7.86832 2.4736ZM9.02003 1.68994C9.54288 1.68994 9.99118 2.01288 10.1717 2.4736L11.5683 1.92629C11.1689 0.907006 10.1772 0.189941 9.02003 0.189941V1.68994ZM11.27 18.0599C11.27 19.2957 10.2558 20.3099 9.02003 20.3099V21.8099C11.0842 21.8099 12.77 20.1242 12.77 18.0599H11.27ZM9.02003 20.3099C8.40751 20.3099 7.83588 20.0551 7.43036 19.6496L6.3697 20.7103C7.04417 21.3847 7.99255 21.8099 9.02003 21.8099V20.3099ZM7.43036 19.6496C7.02483 19.2441 6.77003 18.6725 6.77003 18.0599H5.27003C5.27003 19.0874 5.69522 20.0358 6.3697 20.7103L7.43036 19.6496Z" fill="#171717"/>
</svg>
