<svg width="24" height="25" viewBox="0 0 24 25" fill="none" xmlns="http://www.w3.org/2000/svg">
<path d="M9.81234 7.44776L8.23271 4.75934C7.92396 4.23388 7.25398 4.05435 6.75271 4.401C5.76643 5.08305 4.29649 6.2796 3.93082 7.55889C3.36319 9.54476 5.40945 14.2741 8.19148 17.0562C10.9736 19.8384 15.4617 21.6431 17.4477 21.0757C18.7269 20.7102 19.9237 19.2409 20.606 18.2548C20.9529 17.7535 20.7734 17.0834 20.2478 16.7746L17.5593 15.1949C17.0493 14.8952 16.3943 15.0432 16.0626 15.533L15.3235 16.6244C15.0036 17.0967 14.3826 17.2483 13.9048 16.9367C13.1351 16.4349 11.9372 15.5652 10.6892 14.3173C9.44149 13.0696 8.57188 11.8717 8.07002 11.1021C7.75834 10.6241 7.91007 10.003 8.38266 9.68318L9.4739 8.94477C9.96395 8.61317 10.1121 7.95791 9.81234 7.44776Z" stroke="#939393" stroke-width="1.5"/>
</svg>
