<svg width="192" height="183" viewBox="0 0 192 183" fill="none" xmlns="http://www.w3.org/2000/svg">
<path d="M95.4575 182.846C142.49 182.846 180.617 144.718 180.617 97.686C180.617 50.6536 142.49 12.5264 95.4575 12.5264C48.4251 12.5264 10.2979 50.6536 10.2979 97.686C10.2979 144.718 48.4251 182.846 95.4575 182.846Z" fill="url(#paint0_linear_164_2045)"/>
<path d="M141.401 32.3428H47.0616C41.1814 32.3428 36.4145 37.1097 36.4145 42.9899H152.048C152.048 37.1097 147.281 32.3428 141.401 32.3428Z" fill="url(#paint1_linear_164_2045)"/>
<path d="M36.4145 42.6992H152.048V130.767C152.048 134.683 150.492 138.438 147.724 141.207C144.955 143.976 141.2 145.531 137.284 145.531H51.1781C47.2626 145.531 43.5074 143.976 40.7386 141.207C37.9699 138.438 36.4145 134.683 36.4145 130.767V42.6992Z" fill="url(#paint2_linear_164_2045)"/>
<path d="M132.171 53.8228H56.3285C54.7491 53.8228 53.4687 55.1018 53.4687 56.6795C53.4687 58.2573 54.7491 59.5363 56.3285 59.5363H132.171C133.751 59.5363 135.031 58.2573 135.031 56.6795C135.031 55.1018 133.751 53.8228 132.171 53.8228Z" fill="url(#paint3_linear_164_2045)"/>
<path d="M132.171 78.0977H56.3285C54.7491 78.0977 53.4687 79.3767 53.4687 80.9544C53.4687 82.5322 54.7491 83.8112 56.3285 83.8112H132.171C133.751 83.8112 135.031 82.5322 135.031 80.9544C135.031 79.3767 133.751 78.0977 132.171 78.0977Z" fill="url(#paint4_linear_164_2045)"/>
<path d="M132.171 102.373H56.3285C54.7491 102.373 53.4687 103.652 53.4687 105.229C53.4687 106.807 54.7491 108.086 56.3285 108.086H132.171C133.751 108.086 135.031 106.807 135.031 105.229C135.031 103.652 133.751 102.373 132.171 102.373Z" fill="url(#paint5_linear_164_2045)"/>
<path d="M132.171 126.647H56.3286C54.7491 126.647 53.4687 127.926 53.4687 129.504C53.4687 131.082 54.7491 132.361 56.3286 132.361H132.171C133.751 132.361 135.031 131.082 135.031 129.504C135.031 127.926 133.751 126.647 132.171 126.647Z" fill="url(#paint6_linear_164_2045)"/>
<g filter="url(#filter0_d_164_2045)">
<path d="M55.8149 97.1655H15.43C12.1856 97.1655 9.55545 99.7956 9.55545 103.04V160.764C9.55545 164.008 12.1856 166.638 15.43 166.638H55.8149C59.0593 166.638 61.6894 164.008 61.6894 160.764V103.04C61.6894 99.7956 59.0593 97.1655 55.8149 97.1655Z" fill="url(#paint7_linear_164_2045)"/>
</g>
<g filter="url(#filter1_d_164_2045)">
<path d="M170.778 7H126.171C124.093 7 122.408 8.68504 122.408 10.7637V31.7299C122.408 33.8085 124.093 35.4936 126.171 35.4936H170.778C172.857 35.4936 174.542 33.8085 174.542 31.7299V10.7637C174.542 8.68504 172.857 7 170.778 7Z" fill="url(#paint8_linear_164_2045)"/>
</g>
<path d="M51.3084 126.043H19.9364C18.88 126.043 18.0236 126.899 18.0236 127.956V127.962C18.0236 129.018 18.88 129.875 19.9364 129.875H51.3084C52.3648 129.875 53.2212 129.018 53.2212 127.962V127.956C53.2212 126.899 52.3648 126.043 51.3084 126.043Z" fill="url(#paint9_linear_164_2045)"/>
<path d="M51.3262 153.005H20.2238C19.1765 153.005 18.3275 153.835 18.3275 154.858V154.864C18.3275 155.887 19.1765 156.717 20.2238 156.717H51.3262C52.3735 156.717 53.2226 155.887 53.2226 154.864V154.858C53.2226 153.835 52.3735 153.005 51.3262 153.005Z" fill="url(#paint10_linear_164_2045)"/>
<path d="M51.3262 138.898H20.2238C19.1765 138.898 18.3275 139.728 18.3275 140.752V140.758C18.3275 141.781 19.1765 142.611 20.2238 142.611H51.3262C52.3735 142.611 53.2226 141.781 53.2226 140.758V140.752C53.2226 139.728 52.3735 138.898 51.3262 138.898Z" fill="url(#paint11_linear_164_2045)"/>
<path d="M31.407 106.08H22.2393C20.2086 106.08 18.5623 107.726 18.5623 109.757V112.301C18.5623 114.332 20.2086 115.978 22.2393 115.978H31.407C33.4378 115.978 35.084 114.332 35.084 112.301V109.757C35.084 107.726 33.4378 106.08 31.407 106.08Z" fill="url(#paint12_linear_164_2045)"/>
<path d="M133.417 25.5704C135.806 25.5704 137.744 23.6332 137.744 21.2435C137.744 18.8538 135.806 16.9165 133.417 16.9165C131.027 16.9165 129.09 18.8538 129.09 21.2435C129.09 23.6332 131.027 25.5704 133.417 25.5704Z" fill="#EDEDED"/>
<path d="M148.88 25.5704C151.269 25.5704 153.207 23.6332 153.207 21.2435C153.207 18.8538 151.269 16.9165 148.88 16.9165C146.49 16.9165 144.553 18.8538 144.553 21.2435C144.553 23.6332 146.49 25.5704 148.88 25.5704Z" fill="#EDEDED"/>
<path d="M164.343 25.5704C166.732 25.5704 168.67 23.6332 168.67 21.2435C168.67 18.8538 166.732 16.9165 164.343 16.9165C161.953 16.9165 160.016 18.8538 160.016 21.2435C160.016 23.6332 161.953 25.5704 164.343 25.5704Z" fill="#EDEDED"/>
<path d="M152.611 128.774L141.652 140.855L172.541 168.874L183.5 156.792L152.611 128.774Z" fill="url(#paint13_linear_164_2045)"/>
<path fill-rule="evenodd" clip-rule="evenodd" d="M164.192 108.777C164.192 134.052 143.703 154.542 118.428 154.542C93.1529 154.542 72.6636 134.052 72.6636 108.777C72.6636 83.5025 93.1529 63.0132 118.428 63.0132C143.703 63.0132 164.192 83.5025 164.192 108.777ZM157.172 108.778C157.172 130.176 139.826 147.522 118.428 147.522C97.0296 147.522 79.6831 130.176 79.6831 108.778C79.6831 87.3795 97.0296 70.033 118.428 70.033C139.826 70.033 157.172 87.3795 157.172 108.778Z" fill="url(#paint14_linear_164_2045)"/>
<g filter="url(#filter2_b_164_2045)">
<path d="M118.428 147.522C139.826 147.522 157.173 130.175 157.173 108.777C157.173 87.3792 139.826 70.0327 118.428 70.0327C97.03 70.0327 79.6835 87.3792 79.6835 108.777C79.6835 130.175 97.03 147.522 118.428 147.522Z" fill="url(#paint15_linear_164_2045)" fill-opacity="0.2"/>
</g>
<path d="M127.738 108.777L138.818 97.6719C139.857 96.5732 140.425 95.1131 140.404 93.6018C140.382 92.0905 139.773 90.6471 138.704 89.5783C137.635 88.5095 136.192 87.8996 134.68 87.8782C133.169 87.8568 131.709 88.4256 130.61 89.4636L119.505 100.569L108.425 89.4636C107.891 88.8993 107.25 88.4477 106.54 88.1354C105.829 87.8232 105.063 87.6566 104.286 87.6456C103.51 87.6346 102.739 87.7794 102.02 88.0714C101.301 88.3634 100.647 88.7967 100.098 89.3457C99.5494 89.8946 99.1161 90.5481 98.8241 91.2675C98.532 91.9868 98.3873 92.7574 98.3983 93.5337C98.4093 94.31 98.5758 95.0762 98.8881 95.7869C99.2004 96.4977 99.652 97.1387 100.216 97.6719L111.315 108.777L100.216 119.882C99.652 120.416 99.2004 121.056 98.8881 121.767C98.5758 122.478 98.4093 123.244 98.3983 124.021C98.3873 124.797 98.532 125.567 98.8241 126.287C99.1161 127.006 99.5494 127.66 100.098 128.209C100.647 128.758 101.301 129.191 102.02 129.483C102.739 129.775 103.51 129.92 104.286 129.909C105.063 129.898 105.829 129.731 106.54 129.419C107.25 129.107 107.891 128.655 108.425 128.091L119.53 116.985L130.635 128.091C131.744 129.067 133.184 129.585 134.661 129.537C136.138 129.489 137.541 128.88 138.585 127.833C139.628 126.786 140.233 125.381 140.277 123.904C140.32 122.427 139.799 120.988 138.818 119.882L127.738 108.777Z" fill="url(#paint16_linear_164_2045)"/>
<g filter="url(#filter3_f_164_2045)">
<ellipse cx="119.709" cy="130.177" rx="27.2369" ry="4.02364" fill="#EC5575" fill-opacity="0.56"/>
</g>
<path d="M88.2313 156.904C88.6156 155.312 90.8798 155.312 91.264 156.904L92.5573 162.261C92.6946 162.83 93.1388 163.274 93.7076 163.412L99.0651 164.705C100.657 165.089 100.657 167.353 99.0651 167.738L93.7076 169.031C93.1388 169.168 92.6946 169.612 92.5573 170.181L91.264 175.539C90.8798 177.13 88.6156 177.13 88.2313 175.539L86.938 170.181C86.8007 169.612 86.3566 169.168 85.7877 169.031L80.4302 167.738C78.8384 167.353 78.8384 165.089 80.4302 164.705L85.7877 163.412C86.3566 163.274 86.8007 162.83 86.938 162.261L88.2313 156.904Z" fill="url(#paint17_linear_164_2045)"/>
<path d="M26.608 14.3534C26.9923 12.7616 29.2565 12.7616 29.6407 14.3534L30.934 19.711C31.0713 20.2798 31.5155 20.724 32.0843 20.8613L37.4418 22.1545C39.0337 22.5388 39.0337 24.803 37.4418 25.1873L32.0843 26.4805C31.5155 26.6179 31.0713 27.062 30.934 27.6309L29.6407 32.9884C29.2565 34.5802 26.9923 34.5802 26.608 32.9884L25.3147 27.6309C25.1774 27.062 24.7333 26.6179 24.1644 26.4805L18.8069 25.1873C17.2151 24.803 17.2151 22.5388 18.8069 22.1545L24.1644 20.8613C24.7333 20.724 25.1774 20.2798 25.3147 19.711L26.608 14.3534Z" fill="url(#paint18_linear_164_2045)"/>
<path fill-rule="evenodd" clip-rule="evenodd" d="M92.0623 15.2214C93.4981 15.2214 94.6621 14.0574 94.6621 12.6215C94.6621 11.1857 93.4981 10.0217 92.0623 10.0217C90.6264 10.0217 89.4624 11.1857 89.4624 12.6215C89.4624 14.0574 90.6264 15.2214 92.0623 15.2214ZM92.0623 17.1713C94.575 17.1713 96.612 15.1343 96.612 12.6215C96.612 10.1088 94.575 8.07178 92.0623 8.07178C89.5495 8.07178 87.5125 10.1088 87.5125 12.6215C87.5125 15.1343 89.5495 17.1713 92.0623 17.1713Z" fill="url(#paint19_linear_164_2045)"/>
<path d="M172.905 86.8109C172.658 85.8413 173.553 84.9676 174.516 85.2383L181.019 87.0657C181.982 87.3364 182.291 88.5485 181.575 89.2474L176.741 93.9653C176.025 94.6642 174.821 94.3258 174.574 93.3562L172.905 86.8109Z" fill="url(#paint20_linear_164_2045)"/>
<path d="M20.479 75.6483C21.4489 75.4023 22.3215 76.2986 22.0495 77.2616L20.2137 83.762C19.9417 84.725 18.7293 85.0325 18.0313 84.3154L13.3197 79.4754C12.6216 78.7584 12.9616 77.5546 13.9316 77.3086L20.479 75.6483Z" fill="url(#paint21_linear_164_2045)"/>
<path d="M144.468 165.485C145.438 165.239 146.31 166.135 146.038 167.098L144.203 173.598C143.931 174.561 142.718 174.869 142.02 174.152L137.309 169.312C136.611 168.595 136.951 167.391 137.921 167.145L144.468 165.485Z" fill="url(#paint22_linear_164_2045)"/>
<path fill-rule="evenodd" clip-rule="evenodd" d="M178.929 53.0861C180.365 53.0861 181.529 51.9221 181.529 50.4863C181.529 49.0504 180.365 47.8864 178.929 47.8864C177.493 47.8864 176.329 49.0504 176.329 50.4863C176.329 51.9221 177.493 53.0861 178.929 53.0861ZM178.929 55.036C181.441 55.036 183.478 52.999 183.478 50.4863C183.478 47.9735 181.441 45.9365 178.929 45.9365C176.416 45.9365 174.379 47.9735 174.379 50.4863C174.379 52.999 176.416 55.036 178.929 55.036Z" fill="url(#paint23_linear_164_2045)"/>
<path d="M172.539 168.875L183.498 156.793L185.148 158.291C186.75 159.743 187.709 161.773 187.814 163.932C187.919 166.092 187.162 168.205 185.71 169.806C184.257 171.408 182.228 172.367 180.068 172.472C177.908 172.577 175.795 171.82 174.194 170.368L172.543 168.87L172.539 168.875Z" fill="#CBCBCB"/>
<defs>
<filter id="filter0_d_164_2045" x="0.646069" y="91.2259" width="74.4075" height="91.7461" filterUnits="userSpaceOnUse" color-interpolation-filters="sRGB">
<feFlood flood-opacity="0" result="BackgroundImageFix"/>
<feColorMatrix in="SourceAlpha" type="matrix" values="0 0 0 0 0 0 0 0 0 0 0 0 0 0 0 0 0 0 127 0" result="hardAlpha"/>
<feOffset dx="2.22735" dy="5.19714"/>
<feGaussianBlur stdDeviation="5.56836"/>
<feComposite in2="hardAlpha" operator="out"/>
<feColorMatrix type="matrix" values="0 0 0 0 0.104618 0 0 0 0 0.465612 0 0 0 0 0.545833 0 0 0 0.15 0"/>
<feBlend mode="normal" in2="BackgroundImageFix" result="effect1_dropShadow_164_2045"/>
<feBlend mode="normal" in="SourceGraphic" in2="effect1_dropShadow_164_2045" result="shape"/>
</filter>
<filter id="filter1_d_164_2045" x="117.21" y="0.317963" width="71.4377" height="47.7973" filterUnits="userSpaceOnUse" color-interpolation-filters="sRGB">
<feFlood flood-opacity="0" result="BackgroundImageFix"/>
<feColorMatrix in="SourceAlpha" type="matrix" values="0 0 0 0 0 0 0 0 0 0 0 0 0 0 0 0 0 0 127 0" result="hardAlpha"/>
<feOffset dx="4.45469" dy="2.96979"/>
<feGaussianBlur stdDeviation="4.82592"/>
<feComposite in2="hardAlpha" operator="out"/>
<feColorMatrix type="matrix" values="0 0 0 0 0.104618 0 0 0 0 0.465612 0 0 0 0 0.545833 0 0 0 0.09 0"/>
<feBlend mode="normal" in2="BackgroundImageFix" result="effect1_dropShadow_164_2045"/>
<feBlend mode="normal" in="SourceGraphic" in2="effect1_dropShadow_164_2045" result="shape"/>
</filter>
<filter id="filter2_b_164_2045" x="67.303" y="57.6523" width="102.25" height="102.25" filterUnits="userSpaceOnUse" color-interpolation-filters="sRGB">
<feFlood flood-opacity="0" result="BackgroundImageFix"/>
<feGaussianBlur in="BackgroundImageFix" stdDeviation="6.19022"/>
<feComposite in2="SourceAlpha" operator="in" result="effect1_backgroundBlur_164_2045"/>
<feBlend mode="normal" in="SourceGraphic" in2="effect1_backgroundBlur_164_2045" result="shape"/>
</filter>
<filter id="filter3_f_164_2045" x="76.9967" y="110.678" width="85.425" height="38.9984" filterUnits="userSpaceOnUse" color-interpolation-filters="sRGB">
<feFlood flood-opacity="0" result="BackgroundImageFix"/>
<feBlend mode="normal" in="SourceGraphic" in2="BackgroundImageFix" result="shape"/>
<feGaussianBlur stdDeviation="7.73777" result="effect1_foregroundBlur_164_2045"/>
</filter>
<linearGradient id="paint0_linear_164_2045" x1="94.801" y1="-15.2037" x2="96.5455" y2="283.864" gradientUnits="userSpaceOnUse">
<stop stop-color="white" stop-opacity="0"/>
<stop offset="1" stop-color="#D0D0D0"/>
</linearGradient>
<linearGradient id="paint1_linear_164_2045" x1="36.2835" y1="34.8" x2="152.105" y2="42.9669" gradientUnits="userSpaceOnUse">
<stop stop-color="#D7D7D7"/>
<stop offset="1" stop-color="#C3C3C3"/>
</linearGradient>
<linearGradient id="paint2_linear_164_2045" x1="32.9425" y1="119.811" x2="199.993" y2="122.78" gradientUnits="userSpaceOnUse">
<stop stop-color="white"/>
<stop offset="1" stop-color="#DBDBDB"/>
</linearGradient>
<linearGradient id="paint3_linear_164_2045" x1="50.0191" y1="59.3007" x2="139.855" y2="59.3007" gradientUnits="userSpaceOnUse">
<stop stop-color="#CBCBCB"/>
<stop offset="1" stop-color="#EFEFEF"/>
</linearGradient>
<linearGradient id="paint4_linear_164_2045" x1="50.0191" y1="83.5756" x2="139.855" y2="83.5756" gradientUnits="userSpaceOnUse">
<stop stop-color="#CBCBCB"/>
<stop offset="1" stop-color="#EFEFEF"/>
</linearGradient>
<linearGradient id="paint5_linear_164_2045" x1="50.0191" y1="107.851" x2="139.855" y2="107.851" gradientUnits="userSpaceOnUse">
<stop stop-color="#CBCBCB"/>
<stop offset="1" stop-color="#EFEFEF"/>
</linearGradient>
<linearGradient id="paint6_linear_164_2045" x1="50.0191" y1="132.125" x2="139.855" y2="132.125" gradientUnits="userSpaceOnUse">
<stop stop-color="#CBCBCB"/>
<stop offset="1" stop-color="#EFEFEF"/>
</linearGradient>
<linearGradient id="paint7_linear_164_2045" x1="7.99009" y1="149.262" x2="107.914" y2="157.468" gradientUnits="userSpaceOnUse">
<stop stop-color="white"/>
<stop offset="1" stop-color="#C1C1C1"/>
</linearGradient>
<linearGradient id="paint8_linear_164_2045" x1="120.842" y1="28.3667" x2="196.119" y2="30.5442" gradientUnits="userSpaceOnUse">
<stop stop-color="white"/>
<stop offset="1" stop-color="#DBDBDB"/>
</linearGradient>
<linearGradient id="paint9_linear_164_2045" x1="57.306" y1="129.989" x2="14.9864" y2="129.989" gradientUnits="userSpaceOnUse">
<stop stop-color="#F2F2F2"/>
<stop offset="1" stop-color="#D7D7D7"/>
</linearGradient>
<linearGradient id="paint10_linear_164_2045" x1="57.2722" y1="156.828" x2="15.3164" y2="156.828" gradientUnits="userSpaceOnUse">
<stop stop-color="#F2F2F2"/>
<stop offset="1" stop-color="#D7D7D7"/>
</linearGradient>
<linearGradient id="paint11_linear_164_2045" x1="57.2722" y1="142.721" x2="15.3164" y2="142.721" gradientUnits="userSpaceOnUse">
<stop stop-color="#F2F2F2"/>
<stop offset="1" stop-color="#D7D7D7"/>
</linearGradient>
<linearGradient id="paint12_linear_164_2045" x1="46.5405" y1="115.883" x2="16.4714" y2="115.883" gradientUnits="userSpaceOnUse">
<stop offset="0.243799" stop-color="#E5E5E5"/>
<stop offset="1" stop-color="#B0B0B0"/>
</linearGradient>
<linearGradient id="paint13_linear_164_2045" x1="148.769" y1="147.335" x2="159.831" y2="135.202" gradientUnits="userSpaceOnUse">
<stop stop-color="#D7D7D7"/>
<stop offset="1" stop-color="#C3C3C3"/>
</linearGradient>
<linearGradient id="paint14_linear_164_2045" x1="72.5599" y1="84.1367" x2="164.69" y2="84.7348" gradientUnits="userSpaceOnUse">
<stop stop-color="#D7D7D7"/>
<stop offset="1" stop-color="#C3C3C3"/>
</linearGradient>
<linearGradient id="paint15_linear_164_2045" x1="118.428" y1="70.0327" x2="157.47" y2="171.342" gradientUnits="userSpaceOnUse">
<stop stop-color="white"/>
<stop offset="1" stop-color="#C7C7C7"/>
</linearGradient>
<linearGradient id="paint16_linear_164_2045" x1="98.5985" y1="90.4886" x2="140.67" y2="129.795" gradientUnits="userSpaceOnUse">
<stop stop-color="#FF698D"/>
<stop offset="1" stop-color="#FF3868"/>
</linearGradient>
<linearGradient id="paint17_linear_164_2045" x1="74.1132" y1="157.822" x2="105.516" y2="158.026" gradientUnits="userSpaceOnUse">
<stop stop-color="#D7D7D7"/>
<stop offset="1" stop-color="#C3C3C3"/>
</linearGradient>
<linearGradient id="paint18_linear_164_2045" x1="12.4899" y1="15.2719" x2="43.8931" y2="15.4758" gradientUnits="userSpaceOnUse">
<stop stop-color="#D7D7D7"/>
<stop offset="1" stop-color="#C3C3C3"/>
</linearGradient>
<linearGradient id="paint19_linear_164_2045" x1="87.5022" y1="10.1718" x2="96.6615" y2="10.2313" gradientUnits="userSpaceOnUse">
<stop stop-color="#D7D7D7"/>
<stop offset="1" stop-color="#C3C3C3"/>
</linearGradient>
<linearGradient id="paint20_linear_164_2045" x1="169.782" y1="91.3262" x2="179.205" y2="82.2478" gradientUnits="userSpaceOnUse">
<stop stop-color="#D7D7D7"/>
<stop offset="1" stop-color="#C3C3C3"/>
</linearGradient>
<linearGradient id="paint21_linear_164_2045" x1="15.9677" y1="72.5196" x2="25.0339" y2="81.9547" gradientUnits="userSpaceOnUse">
<stop stop-color="#D7D7D7"/>
<stop offset="1" stop-color="#C3C3C3"/>
</linearGradient>
<linearGradient id="paint22_linear_164_2045" x1="139.957" y1="162.356" x2="149.023" y2="171.791" gradientUnits="userSpaceOnUse">
<stop stop-color="#D7D7D7"/>
<stop offset="1" stop-color="#C3C3C3"/>
</linearGradient>
<linearGradient id="paint23_linear_164_2045" x1="174.369" y1="48.0366" x2="183.528" y2="48.096" gradientUnits="userSpaceOnUse">
<stop stop-color="#D7D7D7"/>
<stop offset="1" stop-color="#C3C3C3"/>
</linearGradient>
</defs>
</svg>
