<!-- <svg width="20" height="23" viewBox="0 0 20 23" fill="none" xmlns="http://www.w3.org/2000/svg">
<path d="M5.5 3.7099L10 6.3099L14.5 3.7099M5.5 19.2899V14.0999L1 11.4999M19 11.4999L14.5 14.0999V19.2899M1.27 6.4599L10 11.5099L18.73 6.4599M10 21.5799V11.4999M19 15.4999V7.4999C18.9996 7.14918 18.9071 6.80471 18.7315 6.50106C18.556 6.19742 18.3037 5.94526 18 5.7699L11 1.7699C10.696 1.59437 10.3511 1.50195 10 1.50195C9.64893 1.50195 9.30404 1.59437 9 1.7699L2 5.7699C1.69626 5.94526 1.44398 6.19742 1.26846 6.50106C1.09294 6.80471 1.00036 7.14918 1 7.4999V15.4999C1.00036 15.8506 1.09294 16.1951 1.26846 16.4987C1.44398 16.8024 1.69626 17.0545 2 17.2299L9 21.2299C9.30404 21.4054 9.64893 21.4979 10 21.4979C10.3511 21.4979 10.696 21.4054 11 21.2299L18 17.2299C18.3037 17.0545 18.556 16.8024 18.7315 16.4987C18.9071 16.1951 18.9996 15.8506 19 15.4999Z" stroke="#171717" stroke-width="1.5" stroke-linecap="round" stroke-linejoin="round"/>
</svg> -->
<svg width="24" height="25" viewBox="0 0 24 25" fill="none" xmlns="http://www.w3.org/2000/svg">
<path d="M7.5 4.7099L12 7.3099L16.5 4.7099M7.5 20.2899V15.0999L3 12.4999M21 12.4999L16.5 15.0999V20.2899M3.27 7.4599L12 12.5099L20.73 7.4599M12 22.5799V12.4999M21 16.4999V8.4999C20.9996 8.14918 20.9071 7.80471 20.7315 7.50106C20.556 7.19742 20.3037 6.94526 20 6.7699L13 2.7699C12.696 2.59437 12.3511 2.50195 12 2.50195C11.6489 2.50195 11.304 2.59437 11 2.7699L4 6.7699C3.69626 6.94526 3.44398 7.19742 3.26846 7.50106C3.09294 7.80471 3.00036 8.14918 3 8.4999V16.4999C3.00036 16.8506 3.09294 17.1951 3.26846 17.4987C3.44398 17.8024 3.69626 18.0545 4 18.2299L11 22.2299C11.304 22.4054 11.6489 22.4979 12 22.4979C12.3511 22.4979 12.696 22.4054 13 22.2299L20 18.2299C20.3037 18.0545 20.556 17.8024 20.7315 17.4987C20.9071 17.1951 20.9996 16.8506 21 16.4999Z" stroke="#B0B0B0" stroke-width="1.5" stroke-linecap="round" stroke-linejoin="round"/>
</svg>
