<svg width="139" height="29" viewBox="0 0 139 29" fill="none" xmlns="http://www.w3.org/2000/svg">
<rect width="139" height="29" rx="12" fill="#34C759" fill-opacity="0.1"/>
<rect x="8.5" y="7" width="15" height="15" rx="7.5" stroke="#34C759"/>
<circle cx="16" cy="14.5" r="5" fill="#34C759"/>
<path d="M40.5093 11.11H37.2613V20H35.9103V11.11H32.6553V9.969H40.5093V11.11ZM42.9788 12.909V20H41.7328V12.909H42.9788ZM43.2448 10.683C43.2448 10.8043 43.2191 10.9187 43.1678 11.026C43.1211 11.1287 43.0558 11.222 42.9718 11.306C42.8924 11.3853 42.7968 11.4483 42.6848 11.495C42.5774 11.5417 42.4631 11.565 42.3418 11.565C42.2204 11.565 42.1061 11.5417 41.9988 11.495C41.8961 11.4483 41.8051 11.3853 41.7258 11.306C41.6464 11.222 41.5834 11.1287 41.5368 11.026C41.4901 10.9187 41.4668 10.8043 41.4668 10.683C41.4668 10.5617 41.4901 10.4473 41.5368 10.34C41.5834 10.228 41.6464 10.1323 41.7258 10.053C41.8051 9.969 41.8961 9.90367 41.9988 9.857C42.1061 9.81033 42.2204 9.787 42.3418 9.787C42.4631 9.787 42.5774 9.81033 42.6848 9.857C42.7968 9.90367 42.8924 9.969 42.9718 10.053C43.0558 10.1323 43.1211 10.228 43.1678 10.34C43.2191 10.4473 43.2448 10.5617 43.2448 10.683ZM45.0261 20V12.909H45.7751C45.9524 12.909 46.0621 12.9953 46.1041 13.168L46.1951 13.896C46.4564 13.574 46.7504 13.3103 47.0771 13.105C47.4037 12.8997 47.7817 12.797 48.2111 12.797C48.6871 12.797 49.0721 12.93 49.3661 13.196C49.6647 13.462 49.8794 13.8213 50.0101 14.274C50.1127 14.0173 50.2434 13.7957 50.4021 13.609C50.5654 13.4223 50.7474 13.2683 50.9481 13.147C51.1487 13.0257 51.3611 12.937 51.5851 12.881C51.8137 12.825 52.0447 12.797 52.2781 12.797C52.6514 12.797 52.9827 12.8577 53.2721 12.979C53.5661 13.0957 53.8134 13.2683 54.0141 13.497C54.2194 13.7257 54.3757 14.008 54.4831 14.344C54.5904 14.6753 54.6441 15.0557 54.6441 15.485V20H53.3911V15.485C53.3911 14.9297 53.2697 14.5097 53.0271 14.225C52.7844 13.9357 52.4344 13.791 51.9771 13.791C51.7717 13.791 51.5757 13.8283 51.3891 13.903C51.2071 13.973 51.0461 14.078 50.9061 14.218C50.7661 14.358 50.6541 14.5353 50.5701 14.75C50.4907 14.96 50.4511 15.205 50.4511 15.485V20H49.1981V15.485C49.1981 14.9157 49.0837 14.491 48.8551 14.211C48.6264 13.931 48.2927 13.791 47.8541 13.791C47.5461 13.791 47.2614 13.875 47.0001 14.043C46.7387 14.2063 46.4984 14.4303 46.2791 14.715V20H45.0261ZM61.2838 15.681C61.2838 15.3917 61.2418 15.128 61.1578 14.89C61.0784 14.6473 60.9594 14.4397 60.8008 14.267C60.6468 14.0897 60.4578 13.9543 60.2338 13.861C60.0098 13.763 59.7554 13.714 59.4708 13.714C58.8734 13.714 58.3998 13.889 58.0498 14.239C57.7044 14.5843 57.4898 15.065 57.4058 15.681H61.2838ZM62.2918 19.006C62.1378 19.1927 61.9534 19.356 61.7388 19.496C61.5241 19.6313 61.2931 19.7433 61.0458 19.832C60.8031 19.9207 60.5511 19.986 60.2898 20.028C60.0284 20.0747 59.7694 20.098 59.5128 20.098C59.0228 20.098 58.5701 20.0163 58.1548 19.853C57.7441 19.685 57.3871 19.4423 57.0838 19.125C56.7851 18.803 56.5518 18.4063 56.3838 17.935C56.2158 17.4637 56.1318 16.9223 56.1318 16.311C56.1318 15.8163 56.2064 15.3543 56.3558 14.925C56.5098 14.4957 56.7291 14.1247 57.0138 13.812C57.2984 13.4947 57.6461 13.2473 58.0568 13.07C58.4674 12.888 58.9294 12.797 59.4428 12.797C59.8674 12.797 60.2594 12.8693 60.6188 13.014C60.9828 13.154 61.2954 13.3593 61.5568 13.63C61.8228 13.896 62.0304 14.2273 62.1798 14.624C62.3291 15.016 62.4038 15.464 62.4038 15.968C62.4038 16.164 62.3828 16.2947 62.3408 16.36C62.2988 16.4253 62.2194 16.458 62.1028 16.458H57.3638C57.3778 16.906 57.4384 17.2957 57.5458 17.627C57.6578 17.9583 57.8118 18.236 58.0078 18.46C58.2038 18.6793 58.4371 18.845 58.7078 18.957C58.9784 19.0643 59.2818 19.118 59.6178 19.118C59.9304 19.118 60.1988 19.083 60.4228 19.013C60.6514 18.9383 60.8474 18.859 61.0108 18.775C61.1741 18.691 61.3094 18.614 61.4168 18.544C61.5288 18.4693 61.6244 18.432 61.7038 18.432C61.8064 18.432 61.8858 18.4717 61.9418 18.551L62.2918 19.006ZM65.2223 9.689V20H63.9763V9.689H65.2223ZM73.3609 12.909L69.4059 22.093C69.3639 22.1863 69.3102 22.261 69.2449 22.317C69.1842 22.373 69.0885 22.401 68.9579 22.401H68.0339L69.3289 19.587L66.4029 12.909H67.4809C67.5882 12.909 67.6722 12.937 67.7329 12.993C67.7982 13.0443 67.8425 13.1027 67.8659 13.168L69.7629 17.634C69.8375 17.83 69.9005 18.0353 69.9519 18.25C70.0172 18.0307 70.0872 17.823 70.1619 17.627L72.0029 13.168C72.0309 13.0933 72.0775 13.0327 72.1429 12.986C72.2129 12.9347 72.2899 12.909 72.3739 12.909H73.3609ZM80.9568 15.17C81.3442 15.17 81.6848 15.1187 81.9788 15.016C82.2775 14.9133 82.5272 14.771 82.7278 14.589C82.9332 14.4023 83.0872 14.1807 83.1898 13.924C83.2925 13.6673 83.3438 13.385 83.3438 13.077C83.3438 12.4377 83.1455 11.9383 82.7488 11.579C82.3568 11.2197 81.7595 11.04 80.9568 11.04H79.3468V15.17H80.9568ZM80.9568 9.969C81.5915 9.969 82.1422 10.0437 82.6088 10.193C83.0802 10.3377 83.4698 10.5453 83.7778 10.816C84.0858 11.0867 84.3145 11.4133 84.4638 11.796C84.6178 12.1787 84.6948 12.6057 84.6948 13.077C84.6948 13.5437 84.6132 13.9707 84.4498 14.358C84.2865 14.7453 84.0462 15.079 83.7288 15.359C83.4162 15.639 83.0265 15.8583 82.5598 16.017C82.0978 16.171 81.5635 16.248 80.9568 16.248H79.3468V20H77.9958V9.969H80.9568ZM89.7343 16.808C89.1603 16.8267 88.6703 16.8733 88.2643 16.948C87.863 17.018 87.534 17.1113 87.2773 17.228C87.0253 17.3447 86.841 17.4823 86.7243 17.641C86.6123 17.7997 86.5563 17.977 86.5563 18.173C86.5563 18.3597 86.5866 18.5207 86.6473 18.656C86.708 18.7913 86.7896 18.9033 86.8923 18.992C86.9996 19.076 87.1233 19.139 87.2633 19.181C87.408 19.2183 87.562 19.237 87.7253 19.237C87.9446 19.237 88.1453 19.216 88.3273 19.174C88.5093 19.1273 88.6796 19.062 88.8383 18.978C89.0016 18.894 89.1556 18.7937 89.3003 18.677C89.4496 18.5603 89.5943 18.4273 89.7343 18.278V16.808ZM85.7093 13.91C86.1013 13.532 86.5236 13.2497 86.9763 13.063C87.429 12.8763 87.9306 12.783 88.4813 12.783C88.878 12.783 89.2303 12.8483 89.5383 12.979C89.8463 13.1097 90.1053 13.2917 90.3153 13.525C90.5253 13.7583 90.684 14.0407 90.7913 14.372C90.8986 14.7033 90.9523 15.0673 90.9523 15.464V20H90.3993C90.278 20 90.1846 19.9813 90.1193 19.944C90.054 19.902 90.0026 19.8227 89.9653 19.706L89.8253 19.034C89.6386 19.2067 89.4566 19.3607 89.2793 19.496C89.102 19.6267 88.9153 19.7387 88.7193 19.832C88.5233 19.9207 88.3133 19.9883 88.0893 20.035C87.87 20.0863 87.625 20.112 87.3543 20.112C87.079 20.112 86.82 20.0747 86.5773 20C86.3346 19.9207 86.1223 19.804 85.9403 19.65C85.763 19.496 85.6206 19.3023 85.5133 19.069C85.4106 18.831 85.3593 18.551 85.3593 18.229C85.3593 17.949 85.4363 17.6807 85.5903 17.424C85.7443 17.1627 85.994 16.9317 86.3393 16.731C86.6846 16.5303 87.135 16.367 87.6903 16.241C88.2456 16.1103 88.927 16.0357 89.7343 16.017V15.464C89.7343 14.9133 89.6153 14.498 89.3773 14.218C89.1393 13.9333 88.7916 13.791 88.3343 13.791C88.0263 13.791 87.7673 13.8307 87.5573 13.91C87.352 13.9847 87.1723 14.071 87.0183 14.169C86.869 14.2623 86.7383 14.3487 86.6263 14.428C86.519 14.5027 86.4116 14.54 86.3043 14.54C86.2203 14.54 86.148 14.519 86.0873 14.477C86.0266 14.4303 85.9753 14.3743 85.9333 14.309L85.7093 13.91ZM98.8042 12.909L94.8492 22.093C94.8072 22.1863 94.7536 22.261 94.6882 22.317C94.6276 22.373 94.5319 22.401 94.4012 22.401H93.4772L94.7722 19.587L91.8462 12.909H92.9242C93.0316 12.909 93.1156 12.937 93.1762 12.993C93.2416 13.0443 93.2859 13.1027 93.3092 13.168L95.2062 17.634C95.2809 17.83 95.3439 18.0353 95.3952 18.25C95.4606 18.0307 95.5306 17.823 95.6052 17.627L97.4462 13.168C97.4742 13.0933 97.5209 13.0327 97.5862 12.986C97.6562 12.9347 97.7332 12.909 97.8172 12.909H98.8042ZM99.905 20V12.909H100.654C100.831 12.909 100.941 12.9953 100.983 13.168L101.074 13.896C101.335 13.574 101.629 13.3103 101.956 13.105C102.283 12.8997 102.661 12.797 103.09 12.797C103.566 12.797 103.951 12.93 104.245 13.196C104.544 13.462 104.758 13.8213 104.889 14.274C104.992 14.0173 105.122 13.7957 105.281 13.609C105.444 13.4223 105.626 13.2683 105.827 13.147C106.028 13.0257 106.24 12.937 106.464 12.881C106.693 12.825 106.924 12.797 107.157 12.797C107.53 12.797 107.862 12.8577 108.151 12.979C108.445 13.0957 108.692 13.2683 108.893 13.497C109.098 13.7257 109.255 14.008 109.362 14.344C109.469 14.6753 109.523 15.0557 109.523 15.485V20H108.27V15.485C108.27 14.9297 108.149 14.5097 107.906 14.225C107.663 13.9357 107.313 13.791 106.856 13.791C106.651 13.791 106.455 13.8283 106.268 13.903C106.086 13.973 105.925 14.078 105.785 14.218C105.645 14.358 105.533 14.5353 105.449 14.75C105.37 14.96 105.33 15.205 105.33 15.485V20H104.077V15.485C104.077 14.9157 103.963 14.491 103.734 14.211C103.505 13.931 103.172 13.791 102.733 13.791C102.425 13.791 102.14 13.875 101.879 14.043C101.618 14.2063 101.377 14.4303 101.158 14.715V20H99.905ZM116.163 15.681C116.163 15.3917 116.121 15.128 116.037 14.89C115.957 14.6473 115.838 14.4397 115.68 14.267C115.526 14.0897 115.337 13.9543 115.113 13.861C114.889 13.763 114.634 13.714 114.35 13.714C113.752 13.714 113.279 13.889 112.929 14.239C112.583 14.5843 112.369 15.065 112.285 15.681H116.163ZM117.171 19.006C117.017 19.1927 116.832 19.356 116.618 19.496C116.403 19.6313 116.172 19.7433 115.925 19.832C115.682 19.9207 115.43 19.986 115.169 20.028C114.907 20.0747 114.648 20.098 114.392 20.098C113.902 20.098 113.449 20.0163 113.034 19.853C112.623 19.685 112.266 19.4423 111.963 19.125C111.664 18.803 111.431 18.4063 111.263 17.935C111.095 17.4637 111.011 16.9223 111.011 16.311C111.011 15.8163 111.085 15.3543 111.235 14.925C111.389 14.4957 111.608 14.1247 111.893 13.812C112.177 13.4947 112.525 13.2473 112.936 13.07C113.346 12.888 113.808 12.797 114.322 12.797C114.746 12.797 115.138 12.8693 115.498 13.014C115.862 13.154 116.174 13.3593 116.436 13.63C116.702 13.896 116.909 14.2273 117.059 14.624C117.208 15.016 117.283 15.464 117.283 15.968C117.283 16.164 117.262 16.2947 117.22 16.36C117.178 16.4253 117.098 16.458 116.982 16.458H112.243C112.257 16.906 112.317 17.2957 112.425 17.627C112.537 17.9583 112.691 18.236 112.887 18.46C113.083 18.6793 113.316 18.845 113.587 18.957C113.857 19.0643 114.161 19.118 114.497 19.118C114.809 19.118 115.078 19.083 115.302 19.013C115.53 18.9383 115.726 18.859 115.89 18.775C116.053 18.691 116.188 18.614 116.296 18.544C116.408 18.4693 116.503 18.432 116.583 18.432C116.685 18.432 116.765 18.4717 116.821 18.551L117.171 19.006ZM119.989 13.938C120.143 13.7653 120.307 13.609 120.479 13.469C120.652 13.329 120.834 13.21 121.025 13.112C121.221 13.0093 121.427 12.9323 121.641 12.881C121.861 12.825 122.096 12.797 122.348 12.797C122.736 12.797 123.076 12.8623 123.37 12.993C123.669 13.119 123.916 13.301 124.112 13.539C124.313 13.7723 124.465 14.0547 124.567 14.386C124.67 14.7173 124.721 15.0837 124.721 15.485V20H123.468V15.485C123.468 14.9483 123.345 14.533 123.097 14.239C122.855 13.9403 122.484 13.791 121.984 13.791C121.616 13.791 121.27 13.8797 120.948 14.057C120.631 14.2343 120.337 14.4747 120.066 14.778V20H118.813V12.909H119.562C119.74 12.909 119.849 12.9953 119.891 13.168L119.989 13.938ZM128.701 20.112C128.141 20.112 127.709 19.9557 127.406 19.643C127.107 19.3303 126.958 18.88 126.958 18.292V13.952H126.104C126.029 13.952 125.966 13.931 125.915 13.889C125.864 13.8423 125.838 13.7723 125.838 13.679V13.182L127 13.035L127.287 10.844C127.301 10.774 127.331 10.718 127.378 10.676C127.429 10.6293 127.495 10.606 127.574 10.606H128.204V13.049H130.255V13.952H128.204V18.208C128.204 18.5067 128.276 18.7283 128.421 18.873C128.566 19.0177 128.752 19.09 128.981 19.09C129.112 19.09 129.224 19.0737 129.317 19.041C129.415 19.0037 129.499 18.964 129.569 18.922C129.639 18.88 129.697 18.8427 129.744 18.81C129.795 18.7727 129.84 18.754 129.877 18.754C129.942 18.754 130.001 18.7937 130.052 18.873L130.416 19.468C130.201 19.6687 129.942 19.8273 129.639 19.944C129.336 20.056 129.023 20.112 128.701 20.112Z" fill="#34C759"/>
</svg>
