<svg width="22" height="15" viewBox="0 0 22 15" fill="none" xmlns="http://www.w3.org/2000/svg">
<path d="M1.08622 1.65952C1.04729 1.58749 1.09945 1.5 1.18133 1.5H20.8187C20.9006 1.5 20.9527 1.58749 20.9138 1.65952L20.176 3.02448C20.0156 3.32121 20.0156 3.67879 20.176 3.97552L20.743 5.02448C20.9034 5.32121 20.9034 5.67879 20.743 5.97552L20.176 7.02448C20.0156 7.32121 20.0156 7.67879 20.176 7.97552L20.743 9.02448C20.9034 9.32121 20.9034 9.67879 20.743 9.97552L20.176 11.0245C20.0156 11.3212 20.0156 11.6788 20.176 11.9755L20.9138 13.3405C20.9527 13.4125 20.9006 13.5 20.8187 13.5H1.18133C1.09945 13.5 1.04729 13.4125 1.08622 13.3405L1.82404 11.9755C1.98444 11.6788 1.98444 11.3212 1.82404 11.0245L1.25704 9.97552C1.09664 9.67879 1.09664 9.32121 1.25704 9.02448L1.82404 7.97552C1.98444 7.67879 1.98444 7.32121 1.82404 7.02448L1.25704 5.97552C1.09664 5.67879 1.09664 5.32121 1.25704 5.02448L1.82404 3.97552C1.98444 3.67879 1.98444 3.32121 1.82404 3.02448L1.08622 1.65952Z" stroke="#939393" stroke-width="1.5"/>
<path d="M13.5 8.67447C13.5 9.14539 13.3347 9.5539 13.0041 9.9C12.6952 10.2236 12.2518 10.4369 11.6741 10.5401C11.6216 10.5494 11.5826 10.5947 11.5826 10.648V11.3919C11.5826 11.4516 11.5342 11.5 11.4745 11.5H10.699C10.6393 11.5 10.5909 11.4516 10.5909 11.3919V10.6903C10.5909 10.6335 10.5469 10.5865 10.4903 10.5816C10.114 10.5491 9.7564 10.4808 9.41736 10.3766C9.08432 10.2691 8.80285 10.1408 8.57296 9.99177C8.52995 9.96388 8.51459 9.90881 8.53493 9.86176L8.98533 8.81996C9.01225 8.7577 9.08915 8.7354 9.14691 8.77097C9.37992 8.91444 9.64362 9.03263 9.93802 9.12553C10.2796 9.23333 10.6157 9.28723 10.9463 9.28723C11.5744 9.28723 11.8884 9.12553 11.8884 8.80213C11.8884 8.63191 11.7975 8.50709 11.6157 8.42766C11.4394 8.34255 11.1529 8.25461 10.7562 8.16383C10.3209 8.06738 9.9573 7.96525 9.66529 7.85745C9.37328 7.74397 9.12259 7.56525 8.91322 7.32128C8.70386 7.0773 8.59917 6.74823 8.59917 6.33404C8.59917 5.8461 8.76997 5.42908 9.11157 5.08298C9.43622 4.74866 9.89772 4.53733 10.4961 4.449C10.5501 4.44103 10.5909 4.39516 10.5909 4.34057V3.60811C10.5909 3.5484 10.6393 3.5 10.699 3.5H11.4745C11.5342 3.5 11.5826 3.5484 11.5826 3.60811V4.32037C11.5826 4.3763 11.6253 4.42287 11.6809 4.429C11.9595 4.45972 12.227 4.51318 12.4835 4.58936C12.7417 4.66463 12.9741 4.75987 13.1807 4.87507C13.227 4.90093 13.2457 4.95748 13.2259 5.00671L12.802 6.05874C12.7777 6.11906 12.706 6.14431 12.6484 6.11422C12.1354 5.84659 11.6369 5.71277 11.1529 5.71277C10.8278 5.71277 10.5909 5.76383 10.4421 5.86596C10.2934 5.96241 10.219 6.09007 10.219 6.24894C10.219 6.4078 10.3072 6.52695 10.4835 6.60638C10.6598 6.68582 10.9435 6.76809 11.3347 6.85319C11.7755 6.94965 12.1391 7.05461 12.4256 7.16808C12.7176 7.27589 12.9683 7.45177 13.1777 7.69574C13.3926 7.93404 13.5 8.26028 13.5 8.67447Z" fill="#939393"/>
</svg>
