<svg width="21" height="20" viewBox="0 0 21 20" fill="none" xmlns="http://www.w3.org/2000/svg">
<rect x="2.16666" y="6.66602" width="11.6667" height="11.6667" rx="2" stroke="white" stroke-width="1.2"/>
<path d="M7.16666 6.66602H6.56666V7.26602H7.16666V6.66602ZM13.8333 13.3327H13.2333V13.9327H13.8333V13.3327ZM7.76666 3.66602C7.76666 2.89282 8.39346 2.26602 9.16666 2.26602V1.06602C7.73072 1.06602 6.56666 2.23008 6.56666 3.66602H7.76666ZM7.76666 6.66602V3.66602H6.56666V6.66602H7.76666ZM7.16666 7.26602H11.8333V6.06602H7.16666V7.26602ZM11.8333 7.26602C12.6065 7.26602 13.2333 7.89282 13.2333 8.66602H14.4333C14.4333 7.23007 13.2693 6.06602 11.8333 6.06602V7.26602ZM13.2333 8.66602V13.3327H14.4333V8.66602H13.2333ZM16.8333 12.7327H13.8333V13.9327H16.8333V12.7327ZM18.2333 11.3327C18.2333 12.1059 17.6065 12.7327 16.8333 12.7327V13.9327C18.2693 13.9327 19.4333 12.7686 19.4333 11.3327H18.2333ZM18.2333 3.66602V11.3327H19.4333V3.66602H18.2333ZM16.8333 2.26602C17.6065 2.26602 18.2333 2.89282 18.2333 3.66602H19.4333C19.4333 2.23007 18.2693 1.06602 16.8333 1.06602V2.26602ZM9.16666 2.26602H16.8333V1.06602H9.16666V2.26602Z" fill="white"/>
</svg>
