<svg width="32" height="32" viewBox="0 0 32 32" fill="none" xmlns="http://www.w3.org/2000/svg">
<path d="M18.9334 3.83398C17.2979 3.83398 15.7293 4.48368 14.5729 5.64016C13.4164 6.79663 12.7667 8.36515 12.7667 10.0007V13.434H9.46669C9.30135 13.434 9.16669 13.5673 9.16669 13.734V18.2673C9.16669 18.4327 9.30002 18.5673 9.46669 18.5673H12.7667V27.8673C12.7667 28.0327 12.9 28.1673 13.0667 28.1673H17.6C17.7654 28.1673 17.9 28.034 17.9 27.8673V18.5673H21.2294C21.3667 18.5673 21.4867 18.474 21.52 18.3407L22.6534 13.8073C22.6645 13.7631 22.6654 13.7169 22.656 13.6722C22.6466 13.6276 22.6272 13.5857 22.5992 13.5497C22.5711 13.5137 22.5353 13.4846 22.4943 13.4645C22.4533 13.4445 22.4083 13.434 22.3627 13.434H17.9V10.0007C17.9 9.86495 17.9267 9.73058 17.9787 9.60521C18.0306 9.47984 18.1067 9.36593 18.2027 9.26997C18.2986 9.17402 18.4125 9.09791 18.5379 9.04598C18.6633 8.99405 18.7977 8.96732 18.9334 8.96732H22.4C22.5654 8.96732 22.7 8.83398 22.7 8.66732V4.13398C22.7 3.96865 22.5667 3.83398 22.4 3.83398H18.9334Z" fill="#041F62"/>
</svg>
