<svg width="32" height="32" viewBox="0 0 32 32" fill="none" xmlns="http://www.w3.org/2000/svg">
<path d="M17.3707 2.66602C18.8707 2.67002 19.632 2.67802 20.2893 2.69668L20.548 2.70602C20.8467 2.71668 21.1413 2.73002 21.4973 2.74602C22.916 2.81268 23.884 3.03668 24.7333 3.36602C25.6133 3.70468 26.3547 4.16335 27.096 4.90335C27.7742 5.56966 28.2989 6.37598 28.6333 7.26602C28.9627 8.11535 29.1867 9.08335 29.2533 10.5033C29.2693 10.858 29.2827 11.1527 29.2933 11.4527L29.3013 11.7113C29.3213 12.3673 29.3293 13.1287 29.332 14.6287L29.3333 15.6234V17.37C29.3366 18.3426 29.3263 19.3151 29.3027 20.2873L29.2947 20.546C29.284 20.846 29.2707 21.1407 29.2547 21.4953C29.188 22.9153 28.9613 23.882 28.6333 24.7327C28.2989 25.6227 27.7742 26.429 27.096 27.0954C26.4297 27.7736 25.6234 28.2983 24.7333 28.6327C23.884 28.962 22.916 29.186 21.4973 29.2527L20.548 29.2927L20.2893 29.3007C19.632 29.3193 18.8707 29.3287 17.3707 29.3314L16.376 29.3327H14.6307C13.6577 29.3361 12.6847 29.3259 11.712 29.302L11.4533 29.294C11.1368 29.282 10.8203 29.2683 10.504 29.2527C9.08532 29.186 8.11732 28.962 7.26665 28.6327C6.37709 28.2981 5.57124 27.7734 4.90532 27.0954C4.22658 26.4292 3.70146 25.6228 3.36665 24.7327C3.03732 23.8833 2.81332 22.9153 2.74665 21.4953L2.70665 20.546L2.69999 20.2873C2.67541 19.3151 2.66429 18.3426 2.66665 17.37V14.6287C2.66296 13.6561 2.67274 12.6836 2.69599 11.7113L2.70532 11.4527C2.71599 11.1527 2.72932 10.858 2.74532 10.5033C2.81199 9.08335 3.03599 8.11668 3.36532 7.26602C3.70091 6.37561 4.22695 5.56926 4.90665 4.90335C5.57219 4.22541 6.37757 3.70078 7.26665 3.36602C8.11732 3.03668 9.08399 2.81268 10.504 2.74602C10.8587 2.73002 11.1547 2.71668 11.4533 2.70602L11.712 2.69802C12.6842 2.67433 13.6568 2.6641 14.6293 2.66735L17.3707 2.66602ZM16 9.33268C14.2319 9.33268 12.5362 10.0351 11.2859 11.2853C10.0357 12.5355 9.33332 14.2312 9.33332 15.9993C9.33332 17.7675 10.0357 19.4632 11.2859 20.7134C12.5362 21.9636 14.2319 22.666 16 22.666C17.7681 22.666 19.4638 21.9636 20.714 20.7134C21.9643 19.4632 22.6667 17.7675 22.6667 15.9993C22.6667 14.2312 21.9643 12.5355 20.714 11.2853C19.4638 10.0351 17.7681 9.33268 16 9.33268ZM16 11.9993C16.5253 11.9993 17.0454 12.1026 17.5308 12.3036C18.0161 12.5045 18.4571 12.7991 18.8286 13.1705C19.2001 13.5418 19.4948 13.9827 19.6959 14.468C19.897 14.9533 20.0006 15.4734 20.0007 15.9987C20.0007 16.524 19.8974 17.0441 19.6964 17.5295C19.4955 18.0148 19.2009 18.4558 18.8296 18.8273C18.4582 19.1988 18.0173 19.4935 17.532 19.6946C17.0467 19.8957 16.5266 19.9993 16.0013 19.9993C14.9405 19.9993 13.923 19.5779 13.1729 18.8278C12.4227 18.0776 12.0013 17.0602 12.0013 15.9993C12.0013 14.9385 12.4227 13.9211 13.1729 13.1709C13.923 12.4208 14.9405 11.9993 16.0013 11.9993M23.0013 7.33268C22.5593 7.33268 22.1354 7.50828 21.8228 7.82084C21.5102 8.1334 21.3347 8.55732 21.3347 8.99935C21.3347 9.44138 21.5102 9.8653 21.8228 10.1779C22.1354 10.4904 22.5593 10.666 23.0013 10.666C23.4433 10.666 23.8673 10.4904 24.1798 10.1779C24.4924 9.8653 24.668 9.44138 24.668 8.99935C24.668 8.55732 24.4924 8.1334 24.1798 7.82084C23.8673 7.50828 23.4433 7.33268 23.0013 7.33268Z" fill="#041F62"/>
</svg>
