<svg width="149" height="147" viewBox="0 0 149 147" fill="none" xmlns="http://www.w3.org/2000/svg">
<path d="M77.1004 137.108C113.38 137.108 142.791 107.697 142.791 71.4174C142.791 35.1376 113.38 5.72705 77.1004 5.72705C40.8206 5.72705 11.41 35.1376 11.41 71.4174C11.41 107.697 40.8206 137.108 77.1004 137.108Z" fill="url(#paint0_linear_163_2647)"/>
<path fill-rule="evenodd" clip-rule="evenodd" d="M101.285 103.991C101.232 103.957 101.169 103.938 101.101 103.938C100.909 103.938 100.754 104.093 100.754 104.284V136.531C100.754 136.723 100.909 136.878 101.101 136.878C101.292 136.878 101.447 136.723 101.447 136.531V130.337C105.898 124.583 110.802 123.143 114.593 123.127C116.512 123.119 118.154 123.477 119.315 123.837C119.896 124.017 120.355 124.197 120.669 124.332C120.825 124.399 120.945 124.455 121.025 124.493C121.058 124.509 121.084 124.522 121.104 124.532L125.306 128.734C125.421 128.849 125.607 128.849 125.721 128.734C125.836 128.62 125.836 128.434 125.721 128.319L121.52 124.118C121.51 124.099 121.498 124.073 121.482 124.041C121.462 123.999 121.438 123.946 121.409 123.882C121.384 123.826 121.356 123.762 121.325 123.69C121.194 123.382 121.02 122.93 120.846 122.358C120.498 121.213 120.157 119.594 120.181 117.698C120.228 113.939 121.71 109.057 127.512 104.593L127.532 104.578H134.199C134.361 104.578 134.493 104.446 134.493 104.284C134.493 104.122 134.361 103.991 134.199 103.991H127.436H127.429H101.285ZM120.024 123.453L114.708 118.136L114.695 118.134C114.624 118.121 114.519 118.104 114.382 118.085C114.109 118.046 113.712 118.002 113.224 117.977C112.246 117.928 110.906 117.96 109.453 118.282C106.599 118.914 103.306 120.663 101.447 125.152V129.394C105.892 123.973 110.762 122.555 114.59 122.54C116.583 122.532 118.285 122.903 119.489 123.276C119.68 123.335 119.859 123.395 120.024 123.453ZM115.101 117.699C115.081 117.67 115.056 117.645 115.027 117.625L114.839 117.437C114.834 117.407 114.828 117.375 114.823 117.342C114.779 117.08 114.726 116.699 114.691 116.23C114.622 115.29 114.626 113.998 114.918 112.588C115.496 109.788 117.208 106.511 121.779 104.578H126.585C121.104 109.034 119.641 113.887 119.594 117.69C119.569 119.66 119.923 121.341 120.284 122.528C120.34 122.715 120.397 122.889 120.453 123.05L115.101 117.699ZM114.106 116.273C114.118 116.442 114.133 116.6 114.149 116.747L110.221 112.819C110.211 112.778 110.198 112.719 110.183 112.645C110.151 112.482 110.11 112.244 110.082 111.95C110.025 111.361 110.017 110.551 110.207 109.666C110.584 107.912 111.746 105.83 114.962 104.578H120.403C116.473 106.637 114.902 109.763 114.343 112.469C114.037 113.946 114.034 115.294 114.106 116.273ZM114.021 117.449C113.799 117.426 113.541 117.405 113.253 117.391C112.239 117.34 110.844 117.372 109.326 117.708C106.588 118.315 103.453 119.912 101.447 123.761V117.712C102.711 114.654 104.787 113.546 106.553 113.191C107.463 113.008 108.298 113.023 108.906 113.085C109.209 113.116 109.455 113.159 109.623 113.193C109.701 113.209 109.762 113.223 109.805 113.234L114.021 117.449ZM106.437 112.615C104.74 112.957 102.806 113.939 101.447 116.363V104.876L109.086 112.514C109.047 112.51 109.007 112.505 108.965 112.501C108.316 112.435 107.419 112.417 106.437 112.615ZM113.551 104.578H101.98L109.508 112.105C109.504 112.073 109.501 112.04 109.497 112.006C109.437 111.374 109.427 110.501 109.633 109.542C109.995 107.854 111.023 105.925 113.551 104.578Z" fill="url(#paint1_linear_163_2647)"/>
<path fill-rule="evenodd" clip-rule="evenodd" d="M77.204 13.0527C76.8759 12.9173 76.5242 12.8479 76.1692 12.8485L76.1662 12.8485C75.4494 12.8491 74.7622 13.1342 74.2553 13.641C73.7487 14.1476 73.4637 14.8343 73.4628 15.5507V18.9523H66.7403L66.7403 15.5462C66.7424 13.0484 67.7356 10.6536 69.5018 8.88747C71.2676 7.12164 73.6618 6.12851 76.1591 6.12599L76.1604 6.12599C77.3983 6.12423 78.6243 6.36637 79.7686 6.83859C80.9137 7.31119 81.9544 8.00495 82.8312 8.88017C83.7079 9.7554 84.4035 10.7949 84.878 11.9392C85.3526 13.0836 85.5969 14.3102 85.5969 15.5491V18.8264H78.8744V15.549C78.8744 15.194 78.8044 14.8425 78.6684 14.5145C78.5323 14.1866 78.333 13.8886 78.0817 13.6378C77.8305 13.387 77.5322 13.1882 77.204 13.0527ZM76.1604 6.12599L76.1591 6.12599L76.1604 6.12599Z" fill="url(#paint2_linear_163_2647)"/>
<path d="M76.5776 128.804C90.5106 128.804 101.805 117.509 101.805 103.576C101.805 89.6435 90.5106 78.3486 76.5776 78.3486C62.6447 78.3486 51.3498 89.6435 51.3498 103.576C51.3498 117.509 62.6447 128.804 76.5776 128.804Z" fill="url(#paint3_linear_163_2647)"/>
<path d="M116.383 75.7633V56.4085C116.383 45.8515 112.189 35.7268 104.724 28.2618C97.2593 20.7968 87.1346 16.603 76.5775 16.603C66.0205 16.603 55.8958 20.7968 48.4308 28.2618C40.9658 35.7268 36.772 45.8515 36.772 56.4085V75.7633C36.7725 80.2099 35.5146 84.5659 33.1437 88.3277C30.7729 92.0895 27.3859 95.1036 23.3742 97.0216C22.4521 97.4607 21.6738 98.1527 21.1298 99.017C20.5858 99.8813 20.2985 100.882 20.3013 101.904V102.008C20.3006 102.377 20.3727 102.743 20.5134 103.084C20.654 103.425 20.8606 103.734 21.1212 103.996C21.3817 104.257 21.6912 104.464 22.0319 104.605C22.3727 104.746 22.7379 104.819 23.1068 104.819H130.043C130.412 104.819 130.777 104.746 131.118 104.605C131.459 104.464 131.768 104.257 132.029 103.996C132.289 103.734 132.496 103.425 132.636 103.084C132.777 102.743 132.849 102.377 132.849 102.008V101.904C132.849 100.886 132.561 99.8882 132.018 99.0271C131.475 98.1659 130.7 97.476 129.781 97.0373C125.767 95.1182 122.378 92.1016 120.007 88.3368C117.636 84.5719 116.38 80.2126 116.383 75.7633Z" fill="url(#paint4_linear_163_2647)"/>
<path fill-rule="evenodd" clip-rule="evenodd" d="M61.0651 60.2326C61.0608 60.2283 61.0564 60.2241 61.052 60.2201C60.9774 60.1531 60.8801 60.1253 60.7866 60.1368C60.7197 60.145 60.6547 60.1734 60.6016 60.2219C60.5975 60.2257 60.5934 60.2296 60.5895 60.2336L51.3233 69.5013C51.3097 69.5129 51.2971 69.5254 51.2857 69.5389L46.2622 74.5632C46.2171 74.591 46.1804 74.6285 46.1537 74.6716L36.7894 84.0374C36.767 84.0548 36.747 84.0749 36.7298 84.097L27.5442 93.2841C27.4131 93.4152 27.4132 93.6277 27.5442 93.7587C27.6753 93.8898 27.8878 93.8898 28.0188 93.7587L37.1696 84.6065C44.6201 82.8662 50.4565 84.7755 54.4396 87.1247C56.4417 88.3055 57.9755 89.5978 59.0079 90.5941C59.524 91.092 59.9142 91.5154 60.1744 91.8131C60.3045 91.962 60.4021 92.0793 60.4667 92.1588C60.4758 92.1701 60.4844 92.1807 60.4922 92.1904V93.6053C60.4922 93.7907 60.6425 93.9409 60.8278 93.9409C61.0132 93.9409 61.1634 93.7907 61.1634 93.6053V92.1905L61.189 92.1588C61.2535 92.0793 61.3511 91.962 61.4812 91.8131C61.7415 91.5154 62.1317 91.092 62.6476 90.594C63.68 89.5978 65.2136 88.3055 67.2155 87.1247C71.1991 84.7748 77.0365 82.865 84.4876 84.6081L93.5476 93.6696C93.6787 93.8006 93.8912 93.8006 94.0222 93.6696C94.1533 93.5385 94.1533 93.326 94.0223 93.195L75.5022 74.672C75.4754 74.6286 75.4386 74.5909 75.3932 74.5629L61.0651 60.2326ZM60.4922 91.1604V85.6486L60.4776 85.6149C60.4505 85.5533 60.4081 85.461 60.3487 85.343C60.2299 85.107 60.043 84.7684 59.7741 84.3662C59.2362 83.5617 58.3713 82.5047 57.0678 81.5056C54.4827 79.5241 50.1366 77.7431 43.1059 78.6692L38.0423 83.7336C45.2075 82.3435 50.8662 84.2379 54.7806 86.5465C56.8371 87.7595 58.4122 89.0865 59.474 90.1111C59.894 90.5163 60.2341 90.8747 60.4922 91.1604ZM62.1816 90.1111C61.7616 90.5164 61.4215 90.8747 61.1634 91.1604V85.6488L61.1781 85.6149C61.2052 85.5533 61.2476 85.461 61.307 85.343C61.4259 85.107 61.6128 84.7684 61.8817 84.3662C62.4195 83.5617 63.2844 82.5047 64.5879 81.5056C67.173 79.5242 71.5191 77.7431 78.5497 78.6692L83.6144 83.7348C76.4488 82.3424 70.7892 84.2373 66.8744 86.5466C64.8182 87.7595 63.2433 89.0865 62.1816 90.1111ZM60.4922 84.2396C60.4421 84.1602 60.3887 84.0779 60.332 83.9931C59.7607 83.1386 58.8476 82.024 57.4761 80.9728C54.8487 78.959 50.5718 77.2028 43.8722 77.9028L46.6523 75.1223C51.0274 73.2701 54.4809 74.2868 56.8558 75.7677C58.0556 76.5159 58.9814 77.3842 59.6074 78.0663C59.92 78.407 60.1569 78.7001 60.3148 78.9069C60.3937 79.0102 60.4529 79.0919 60.4918 79.1471L60.4922 79.1477V84.2396ZM57.211 75.1982C54.9462 73.7859 51.746 72.776 47.7774 73.997L51.7355 70.0382C54.7508 68.7442 56.9346 69.3712 58.3698 70.2988C59.1 70.7707 59.644 71.326 60.0057 71.7644C60.1862 71.9832 60.3203 72.1716 60.4084 72.3039C60.4438 72.357 60.4717 72.401 60.4922 72.4343V78.0563C60.3777 77.9202 60.2475 77.7711 60.1019 77.6125C59.4466 76.8984 58.4751 75.9865 57.211 75.1982ZM60.4922 71.2996V61.2802L52.8339 68.9397C55.3939 68.2342 57.3592 68.8465 58.7342 69.7351C59.5155 70.2401 60.0992 70.8291 60.4922 71.2996ZM77.7834 77.9028L75.0032 75.1222C70.6282 73.2701 67.1748 74.2868 64.7999 75.7677C63.6001 76.5159 62.6744 77.3842 62.0484 78.0663C61.7357 78.407 61.4989 78.7001 61.3409 78.9069C61.262 79.0102 61.2029 79.0919 61.164 79.1471L61.1634 79.1478V84.2398C61.2136 84.1603 61.2669 84.078 61.3237 83.9931C61.895 83.1386 62.8082 82.024 64.1796 80.9728C66.807 78.959 71.0838 77.2028 77.7834 77.9028ZM61.5539 77.6125C61.4082 77.7712 61.278 77.9203 61.1634 78.0564V72.4341C61.1839 72.4009 61.2118 72.3569 61.2471 72.3037C61.3351 72.1714 61.469 71.983 61.6492 71.7642C62.0104 71.3259 62.5538 70.7706 63.2833 70.2987C64.7185 69.3703 66.904 68.743 69.924 70.0422L73.8782 73.9969C69.9096 72.776 66.7095 73.7859 64.4448 75.1982C63.1806 75.9865 62.2091 76.8984 61.5539 77.6125ZM68.8237 68.9417L61.1634 61.2802V71.2986C61.556 70.8282 62.1386 70.2397 62.9187 69.7351C64.2939 68.8456 66.2605 68.2331 68.8237 68.9417Z" fill="url(#paint5_linear_163_2647)"/>
<path fill-rule="evenodd" clip-rule="evenodd" d="M98.3067 59.5378V0H98.9779V59.5378H98.3067Z" fill="#DFDCDC"/>
<path fill-rule="evenodd" clip-rule="evenodd" d="M92.8425 55.8227C92.9976 55.7619 93.1725 55.8382 93.2333 55.9933L93.8695 57.6152L95.9474 58.3335C96.4947 56.9979 97.4967 56.1034 98.6421 56.1034C99.7889 56.1034 100.792 57 101.339 58.3383L103.431 57.6152L104.067 55.9933C104.128 55.8382 104.303 55.7619 104.458 55.8227C104.613 55.8835 104.689 56.0584 104.628 56.2134L103.941 57.9649C103.909 58.047 103.842 58.1109 103.759 58.1398L101.536 58.9082C101.66 59.3384 101.739 59.8019 101.767 60.287L103.68 59.8506C103.797 59.824 103.919 59.8617 104.001 59.9495L105.621 61.6957C105.747 61.8316 105.739 62.0439 105.603 62.17C105.468 62.2961 105.255 62.2881 105.129 62.1523L103.641 60.5481L101.771 60.9745C101.75 61.4437 101.68 61.8935 101.569 62.3133L103.009 61.9849C103.135 61.9561 103.267 62.0023 103.347 62.1037L104.684 63.7922C104.799 63.9375 104.775 64.1486 104.629 64.2637C104.484 64.3787 104.273 64.3542 104.158 64.2089L102.952 62.6863L101.315 63.0597C101.145 63.4625 100.933 63.8239 100.689 64.1312C100.799 64.4024 100.86 64.7001 100.86 65.0126C100.86 66.2724 99.8673 67.2936 98.6422 67.2936C97.4172 67.2936 96.4241 66.2724 96.4241 65.0126C96.4241 64.7002 96.4852 64.4025 96.5957 64.1314C96.3501 63.8231 96.1377 63.4601 95.9673 63.0556L94.3482 62.6863L93.1424 64.2089C93.0274 64.3542 92.8163 64.3787 92.671 64.2637C92.5257 64.1486 92.5012 63.9375 92.6162 63.7922L93.9534 62.1037C94.0337 62.0023 94.1651 61.9561 94.2911 61.9849L95.7142 62.3095C95.6034 61.8896 95.5339 61.4399 95.513 60.9709L93.6595 60.5481L92.171 62.1523C92.0449 62.2881 91.8326 62.2961 91.6967 62.17C91.5608 62.0439 91.5529 61.8316 91.679 61.6957L93.2993 59.9495C93.3808 59.8617 93.5031 59.824 93.6199 59.8506L95.5174 60.2834C95.5454 59.7978 95.6256 59.3337 95.7498 58.9032L93.5411 58.1398C93.4577 58.1109 93.3911 58.047 93.3589 57.9649L92.6719 56.2134C92.6111 56.0584 92.6875 55.8835 92.8425 55.8227Z" fill="url(#paint6_linear_163_2647)"/>
<path d="M148.05 50.9387C148.08 50.885 148.098 50.8256 148.104 50.7644C148.109 50.7033 148.101 50.6417 148.081 50.5837C148.06 50.5258 148.028 50.4728 147.986 50.4282C147.943 50.3837 147.892 50.3486 147.835 50.3252C146.178 49.6645 140.316 47.7033 137.112 51.6571C134.968 54.2557 131.938 55.9686 128.607 56.4657C128.523 56.4769 128.444 56.5132 128.381 56.5699C128.319 56.6265 128.274 56.7008 128.254 56.783C128.235 56.8652 128.24 56.9515 128.27 57.0306C128.3 57.1096 128.354 57.1778 128.423 57.226C131.255 59.2344 140.61 64.3523 148.05 50.9387Z" fill="url(#paint7_linear_163_2647)"/>
<path d="M23.8703 78.6677C23.8939 78.6245 23.9082 78.5768 23.9122 78.5277C23.9162 78.4786 23.9099 78.4292 23.8936 78.3827C23.8772 78.3362 23.8513 78.2937 23.8175 78.2579C23.7837 78.2221 23.7427 78.1938 23.6972 78.1748C22.3706 77.6504 17.6564 76.0773 15.0817 79.2236C13.3637 81.3083 10.9359 82.6846 8.26479 83.0882C8.19773 83.0972 8.13495 83.1263 8.08469 83.1716C8.03443 83.2169 7.99904 83.2763 7.98316 83.3421C7.96729 83.4079 7.97166 83.4769 7.99572 83.5402C8.01978 83.6034 8.06239 83.6579 8.11797 83.6965C10.378 85.3326 17.8924 89.4437 23.8703 78.6677Z" fill="url(#paint8_linear_163_2647)"/>
<path d="M135.152 72.7191C135.132 72.6831 135.12 72.6433 135.116 72.6023C135.113 72.5613 135.118 72.52 135.132 72.4812C135.146 72.4425 135.168 72.4072 135.197 72.3776C135.226 72.3481 135.26 72.3251 135.299 72.3101C136.41 71.8644 140.348 70.5482 142.498 73.2015C143.939 74.947 145.975 76.0976 148.214 76.4317C148.273 76.4371 148.33 76.4612 148.375 76.5004C148.419 76.5397 148.451 76.5921 148.464 76.6502C148.478 76.7083 148.472 76.7692 148.449 76.8241C148.426 76.8791 148.386 76.9252 148.335 76.9561C146.436 78.3142 140.149 81.7489 135.152 72.7191Z" fill="url(#paint9_linear_163_2647)"/>
<path d="M0.58711 55.7014C0.554745 55.6414 0.5353 55.5754 0.530027 55.5074C0.524755 55.4395 0.533772 55.3712 0.556497 55.307C0.579223 55.2428 0.615153 55.184 0.661971 55.1346C0.70879 55.0851 0.765458 55.0459 0.828324 55.0197C2.66365 54.2908 9.16069 52.1199 12.7107 56.4932C15.0887 59.3766 18.4521 61.275 22.1495 61.8209C22.242 61.8345 22.3282 61.8756 22.3971 61.9388C22.4659 62.002 22.5142 62.0844 22.5357 62.1754C22.5571 62.2663 22.5508 62.3616 22.5175 62.449C22.4842 62.5363 22.4254 62.6116 22.3488 62.6651C19.1973 64.8885 8.83033 70.5622 0.58711 55.7014Z" fill="url(#paint10_linear_163_2647)"/>
<path d="M22.653 38.6915C22.4727 37.9844 23.1255 37.3473 23.8281 37.5447L28.5702 38.8773C29.2727 39.0747 29.4981 39.9587 28.9759 40.4684L25.4507 43.9089C24.9285 44.4186 24.0503 44.1718 23.87 43.4647L22.653 38.6915Z" fill="#F3EFEF"/>
<path d="M131.64 15.4623C131.92 14.3014 133.572 14.3014 133.852 15.4623L134.795 19.3692C134.895 19.7841 135.219 20.108 135.634 20.2081L139.541 21.1512C140.702 21.4315 140.702 23.0826 139.541 23.3629L135.634 24.306C135.219 24.4061 134.895 24.73 134.795 25.1448L133.852 29.0518C133.572 30.2127 131.92 30.2127 131.64 29.0518L130.697 25.1448C130.597 24.73 130.273 24.4061 129.858 24.306L125.951 23.3629C124.79 23.0826 124.79 21.4315 125.951 21.1512L129.858 20.2081C130.273 20.108 130.597 19.7841 130.697 19.3692L131.64 15.4623Z" fill="#F3EFEF"/>
<path d="M50.3154 128.286C50.5956 127.125 52.2468 127.125 52.527 128.286L53.4701 132.193C53.5703 132.608 53.8942 132.932 54.309 133.032L58.216 133.975C59.3768 134.255 59.3768 135.906 58.216 136.187L54.309 137.13C53.8942 137.23 53.5703 137.554 53.4701 137.969L52.527 141.876C52.2468 143.036 50.5956 143.036 50.3154 141.876L49.3723 137.969C49.2721 137.554 48.9482 137.23 48.5334 137.13L44.6264 136.187C43.4656 135.906 43.4656 134.255 44.6264 133.975L48.5334 133.032C48.9482 132.932 49.2721 132.608 49.3723 132.193L50.3154 128.286Z" fill="#F3EFEF"/>
<path d="M35.0889 122.441C35.0889 123.881 33.9217 125.048 32.482 125.048C31.0422 125.048 29.875 123.881 29.875 122.441C29.875 121.002 31.0422 119.835 32.482 119.835C33.9217 119.835 35.0889 121.002 35.0889 122.441Z" stroke="#F3EFEF" stroke-width="1.42196"/>
<path d="M39.0978 19.9263C39.0978 21.3661 37.9307 22.5332 36.4909 22.5332C35.0511 22.5332 33.884 21.3661 33.884 19.9263C33.884 18.4865 35.0511 17.3194 36.4909 17.3194C37.9307 17.3194 39.0978 18.4865 39.0978 19.9263Z" stroke="#E8E0E0" stroke-width="1.42196"/>
<path d="M142.758 117.287C142.758 118.727 141.591 119.894 140.151 119.894C138.712 119.894 137.544 118.727 137.544 117.287C137.544 115.847 138.712 114.68 140.151 114.68C141.591 114.68 142.758 115.847 142.758 117.287Z" stroke="#E8E0E0" stroke-width="1.42196"/>
<defs>
<linearGradient id="paint0_linear_163_2647" x1="76.594" y1="-15.6633" x2="77.9397" y2="215.031" gradientUnits="userSpaceOnUse">
<stop stop-color="#F7F7F7" stop-opacity="0.0666667"/>
<stop offset="1" stop-color="#D7D7D7"/>
</linearGradient>
<linearGradient id="paint1_linear_163_2647" x1="93.6766" y1="109.358" x2="148.318" y2="115.601" gradientUnits="userSpaceOnUse">
<stop offset="0.0844027" stop-color="#E2E2E2"/>
<stop offset="1" stop-color="#E9E9E9"/>
</linearGradient>
<linearGradient id="paint2_linear_163_2647" x1="90.1845" y1="19.6128" x2="80.7634" y2="2.40324" gradientUnits="userSpaceOnUse">
<stop stop-color="#A9A9A9"/>
<stop offset="1" stop-color="#F4F4F4"/>
</linearGradient>
<linearGradient id="paint3_linear_163_2647" x1="119.079" y1="145.755" x2="41.496" y2="61.9297" gradientUnits="userSpaceOnUse">
<stop stop-color="#E6E6E6"/>
<stop offset="0.70369" stop-color="#999999"/>
</linearGradient>
<linearGradient id="paint4_linear_163_2647" x1="92.162" y1="97.6468" x2="67.8506" y2="26.1715" gradientUnits="userSpaceOnUse">
<stop stop-color="#C4C2C2"/>
<stop offset="1" stop-color="#FBFBFB"/>
</linearGradient>
<linearGradient id="paint5_linear_163_2647" x1="131.542" y1="137.532" x2="65.4102" y2="47.5597" gradientUnits="userSpaceOnUse">
<stop stop-color="#E6E5E5"/>
<stop offset="1" stop-color="#F6F6F6"/>
</linearGradient>
<linearGradient id="paint6_linear_163_2647" x1="117.014" y1="38.3718" x2="85.3904" y2="57.8172" gradientUnits="userSpaceOnUse">
<stop stop-color="#E9E9E9"/>
<stop offset="1" stop-color="#B7B7B7"/>
</linearGradient>
<linearGradient id="paint7_linear_163_2647" x1="152.937" y1="60.4211" x2="146.212" y2="44.7938" gradientUnits="userSpaceOnUse">
<stop stop-color="#A9A9A9"/>
<stop offset="1" stop-color="#F4F4F4"/>
</linearGradient>
<linearGradient id="paint8_linear_163_2647" x1="27.7913" y1="86.2823" x2="22.3903" y2="73.7376" gradientUnits="userSpaceOnUse">
<stop stop-color="#A9A9A9"/>
<stop offset="1" stop-color="#F4F4F4"/>
</linearGradient>
<linearGradient id="paint9_linear_163_2647" x1="151.721" y1="79.1072" x2="147.189" y2="68.5903" gradientUnits="userSpaceOnUse">
<stop stop-color="#A9A9A9"/>
<stop offset="1" stop-color="#F4F4F4"/>
</linearGradient>
<linearGradient id="paint10_linear_163_2647" x1="27.9053" y1="66.205" x2="20.4602" y2="48.8907" gradientUnits="userSpaceOnUse">
<stop stop-color="#A9A9A9"/>
<stop offset="1" stop-color="#F4F4F4"/>
</linearGradient>
</defs>
</svg>
