<svg width="22" height="23" viewBox="0 0 22 23" fill="none" xmlns="http://www.w3.org/2000/svg">
<circle cx="11" cy="11.5" r="10" stroke="#939393" stroke-width="1.5"/>
<circle cx="11" cy="11.5" r="7" stroke="#939393" stroke-width="1.5"/>
<path d="M14 12.9681C14 13.5567 13.8017 14.0674 13.405 14.5C13.0313 14.9076 12.4938 15.1753 11.7925 15.3031C11.7389 15.3129 11.6992 15.3592 11.6992 15.4138V16.3889C11.6992 16.4503 11.6494 16.5 11.5881 16.5H10.6202C10.5588 16.5 10.5091 16.4503 10.5091 16.3889V15.4652C10.5091 15.4069 10.464 15.3586 10.406 15.3535C9.94802 15.3136 9.51298 15.2277 9.10083 15.0957C8.69329 14.9587 8.35011 14.7947 8.07129 14.6036C8.02899 14.5747 8.01384 14.5198 8.03349 14.4725L8.59133 13.1284C8.61864 13.0626 8.69994 13.0392 8.75971 13.078C9.04337 13.2622 9.36534 13.4135 9.72562 13.5319C10.1355 13.6667 10.5388 13.734 10.9355 13.734C11.6893 13.734 12.0661 13.5319 12.0661 13.1277C12.0661 12.9149 11.957 12.7589 11.7388 12.6596C11.5273 12.5532 11.1835 12.4433 10.7074 12.3298C10.1851 12.2092 9.74876 12.0816 9.39835 11.9468C9.04793 11.805 8.74711 11.5816 8.49587 11.2766C8.24463 10.9716 8.11901 10.5603 8.11901 10.0426C8.11901 9.43262 8.32397 8.91135 8.73388 8.47872C9.12651 8.05756 9.68593 7.79255 10.4122 7.68369C10.4674 7.6754 10.5091 7.62835 10.5091 7.57245V6.61111C10.5091 6.54975 10.5588 6.5 10.6202 6.5H11.5881C11.6494 6.5 11.6992 6.54975 11.6992 6.61111V7.54779C11.6992 7.60512 11.7428 7.65292 11.7998 7.65929C12.1403 7.69735 12.4671 7.76482 12.7802 7.8617C13.0973 7.95799 13.382 8.08041 13.6341 8.22898C13.68 8.25599 13.6985 8.31243 13.6793 8.36205L13.1543 9.71924C13.1297 9.78289 13.054 9.8094 12.9942 9.7766C12.373 9.43617 11.7694 9.26596 11.1835 9.26596C10.7934 9.26596 10.5091 9.32979 10.3306 9.45745C10.1521 9.57801 10.0628 9.73759 10.0628 9.93617C10.0628 10.1348 10.1686 10.2837 10.3802 10.383C10.5917 10.4823 10.9322 10.5851 11.4017 10.6915C11.9306 10.8121 12.3669 10.9433 12.7107 11.0851C13.0612 11.2199 13.362 11.4397 13.6132 11.7447C13.8711 12.0426 14 12.4504 14 12.9681Z" fill="#939393"/>
</svg>
