<svg width="20" height="23" viewBox="0 0 20 23" fill="none" xmlns="http://www.w3.org/2000/svg">
<path d="M5.5 3.7099L10 6.3099L14.5 3.7099M5.5 19.2899V14.0999L1 11.4999M19 11.4999L14.5 14.0999V19.2899M1.27 6.4599L10 11.5099L18.73 6.4599M10 21.5799V11.4999M19 15.4999V7.4999C18.9996 7.14918 18.9071 6.80471 18.7315 6.50106C18.556 6.19742 18.3037 5.94526 18 5.7699L11 1.7699C10.696 1.59437 10.3511 1.50195 10 1.50195C9.64893 1.50195 9.30404 1.59437 9 1.7699L2 5.7699C1.69626 5.94526 1.44398 6.19742 1.26846 6.50106C1.09294 6.80471 1.00036 7.14918 1 7.4999V15.4999C1.00036 15.8506 1.09294 16.1951 1.26846 16.4987C1.44398 16.8024 1.69626 17.0545 2 17.2299L9 21.2299C9.30404 21.4054 9.64893 21.4979 10 21.4979C10.3511 21.4979 10.696 21.4054 11 21.2299L18 17.2299C18.3037 17.0545 18.556 16.8024 18.7315 16.4987C18.9071 16.1951 18.9996 15.8506 19 15.4999Z" stroke="#171717" stroke-width="1.5" stroke-linecap="round" stroke-linejoin="round"/>
</svg>
