<svg width="156" height="29" viewBox="0 0 156 29" fill="none" xmlns="http://www.w3.org/2000/svg">
<rect width="156" height="29" rx="12" fill="#E2C626" fill-opacity="0.1"/>
<rect x="8.5" y="7" width="15" height="15" rx="7.5" stroke="#E2C626"/>
<circle cx="16" cy="14.5" r="5" fill="#E2C626"/>
<path d="M46.448 9.969L43.319 20H42.101L39.56 12.349C39.5366 12.2743 39.5133 12.195 39.49 12.111C39.4713 12.027 39.4503 11.9383 39.427 11.845C39.4036 11.9383 39.3803 12.027 39.357 12.111C39.3336 12.195 39.3103 12.2743 39.287 12.349L36.732 20H35.514L32.385 9.969H33.512C33.6333 9.969 33.7336 9.99933 33.813 10.06C33.897 10.1207 33.9506 10.1977 33.974 10.291L36.046 17.263C36.0786 17.389 36.109 17.5243 36.137 17.669C36.1696 17.8137 36.2 17.9677 36.228 18.131C36.2606 17.9677 36.2933 17.8137 36.326 17.669C36.3633 17.5197 36.403 17.3843 36.445 17.263L38.804 10.291C38.832 10.2117 38.8856 10.1393 38.965 10.074C39.049 10.004 39.1493 9.969 39.266 9.969H39.658C39.7793 9.969 39.8773 9.99933 39.952 10.06C40.0266 10.1207 40.0826 10.1977 40.12 10.291L42.472 17.263C42.514 17.3843 42.5513 17.515 42.584 17.655C42.6213 17.795 42.6563 17.942 42.689 18.096C42.7123 17.942 42.738 17.795 42.766 17.655C42.794 17.515 42.8243 17.3843 42.857 17.263L44.936 10.291C44.9593 10.207 45.0106 10.1323 45.09 10.067C45.174 10.0017 45.2743 9.969 45.391 9.969H46.448ZM51.6002 15.681C51.6002 15.3917 51.5582 15.128 51.4742 14.89C51.3949 14.6473 51.2759 14.4397 51.1172 14.267C50.9632 14.0897 50.7742 13.9543 50.5502 13.861C50.3262 13.763 50.0719 13.714 49.7872 13.714C49.1899 13.714 48.7162 13.889 48.3662 14.239C48.0209 14.5843 47.8062 15.065 47.7222 15.681H51.6002ZM52.6082 19.006C52.4542 19.1927 52.2699 19.356 52.0552 19.496C51.8405 19.6313 51.6095 19.7433 51.3622 19.832C51.1195 19.9207 50.8675 19.986 50.6062 20.028C50.3449 20.0747 50.0859 20.098 49.8292 20.098C49.3392 20.098 48.8865 20.0163 48.4712 19.853C48.0605 19.685 47.7035 19.4423 47.4002 19.125C47.1015 18.803 46.8682 18.4063 46.7002 17.935C46.5322 17.4637 46.4482 16.9223 46.4482 16.311C46.4482 15.8163 46.5229 15.3543 46.6722 14.925C46.8262 14.4957 47.0455 14.1247 47.3302 13.812C47.6149 13.4947 47.9625 13.2473 48.3732 13.07C48.7839 12.888 49.2459 12.797 49.7592 12.797C50.1839 12.797 50.5759 12.8693 50.9352 13.014C51.2992 13.154 51.6119 13.3593 51.8732 13.63C52.1392 13.896 52.3469 14.2273 52.4962 14.624C52.6455 15.016 52.7202 15.464 52.7202 15.968C52.7202 16.164 52.6992 16.2947 52.6572 16.36C52.6152 16.4253 52.5359 16.458 52.4192 16.458H47.6802C47.6942 16.906 47.7549 17.2957 47.8622 17.627C47.9742 17.9583 48.1282 18.236 48.3242 18.46C48.5202 18.6793 48.7535 18.845 49.0242 18.957C49.2949 19.0643 49.5982 19.118 49.9342 19.118C50.2469 19.118 50.5152 19.083 50.7392 19.013C50.9679 18.9383 51.1639 18.859 51.3272 18.775C51.4905 18.691 51.6259 18.614 51.7332 18.544C51.8452 18.4693 51.9409 18.432 52.0202 18.432C52.1229 18.432 52.2022 18.4717 52.2582 18.551L52.6082 19.006ZM58.9967 15.681C58.9967 15.3917 58.9547 15.128 58.8707 14.89C58.7913 14.6473 58.6723 14.4397 58.5137 14.267C58.3597 14.0897 58.1707 13.9543 57.9467 13.861C57.7227 13.763 57.4683 13.714 57.1837 13.714C56.5863 13.714 56.1127 13.889 55.7627 14.239C55.4173 14.5843 55.2027 15.065 55.1187 15.681H58.9967ZM60.0047 19.006C59.8507 19.1927 59.6663 19.356 59.4517 19.496C59.237 19.6313 59.006 19.7433 58.7587 19.832C58.516 19.9207 58.264 19.986 58.0027 20.028C57.7413 20.0747 57.4823 20.098 57.2257 20.098C56.7357 20.098 56.283 20.0163 55.8677 19.853C55.457 19.685 55.1 19.4423 54.7967 19.125C54.498 18.803 54.2647 18.4063 54.0967 17.935C53.9287 17.4637 53.8447 16.9223 53.8447 16.311C53.8447 15.8163 53.9193 15.3543 54.0687 14.925C54.2227 14.4957 54.442 14.1247 54.7267 13.812C55.0113 13.4947 55.359 13.2473 55.7697 13.07C56.1803 12.888 56.6423 12.797 57.1557 12.797C57.5803 12.797 57.9723 12.8693 58.3317 13.014C58.6957 13.154 59.0083 13.3593 59.2697 13.63C59.5357 13.896 59.7433 14.2273 59.8927 14.624C60.042 15.016 60.1167 15.464 60.1167 15.968C60.1167 16.164 60.0957 16.2947 60.0537 16.36C60.0117 16.4253 59.9323 16.458 59.8157 16.458H55.0767C55.0907 16.906 55.1513 17.2957 55.2587 17.627C55.3707 17.9583 55.5247 18.236 55.7207 18.46C55.9167 18.6793 56.15 18.845 56.4207 18.957C56.6913 19.0643 56.9947 19.118 57.3307 19.118C57.6433 19.118 57.9117 19.083 58.1357 19.013C58.3643 18.9383 58.5603 18.859 58.7237 18.775C58.887 18.691 59.0223 18.614 59.1297 18.544C59.2417 18.4693 59.3373 18.432 59.4167 18.432C59.5193 18.432 59.5987 18.4717 59.6547 18.551L60.0047 19.006ZM62.9002 9.689V15.758H63.2222C63.3155 15.758 63.3925 15.7463 63.4532 15.723C63.5185 15.695 63.5862 15.6413 63.6562 15.562L65.8962 13.161C65.9615 13.0817 66.0292 13.021 66.0992 12.979C66.1738 12.9323 66.2718 12.909 66.3932 12.909H67.5202L64.9092 15.688C64.7832 15.8467 64.6478 15.9703 64.5032 16.059C64.5872 16.115 64.6618 16.1803 64.7272 16.255C64.7972 16.325 64.8625 16.4067 64.9232 16.5L67.6952 20H66.5822C66.4748 20 66.3815 19.9837 66.3022 19.951C66.2275 19.9137 66.1622 19.8483 66.1062 19.755L63.7752 16.85C63.7052 16.752 63.6352 16.689 63.5652 16.661C63.4998 16.6283 63.3972 16.612 63.2572 16.612H62.9002V20H61.6472V9.689H62.9002ZM73.106 15.681C73.106 15.3917 73.064 15.128 72.98 14.89C72.9007 14.6473 72.7817 14.4397 72.623 14.267C72.469 14.0897 72.28 13.9543 72.056 13.861C71.832 13.763 71.5777 13.714 71.293 13.714C70.6957 13.714 70.222 13.889 69.872 14.239C69.5267 14.5843 69.312 15.065 69.228 15.681H73.106ZM74.114 19.006C73.96 19.1927 73.7757 19.356 73.561 19.496C73.3464 19.6313 73.1154 19.7433 72.868 19.832C72.6254 19.9207 72.3734 19.986 72.112 20.028C71.8507 20.0747 71.5917 20.098 71.335 20.098C70.845 20.098 70.3924 20.0163 69.977 19.853C69.5664 19.685 69.2094 19.4423 68.906 19.125C68.6074 18.803 68.374 18.4063 68.206 17.935C68.038 17.4637 67.954 16.9223 67.954 16.311C67.954 15.8163 68.0287 15.3543 68.178 14.925C68.332 14.4957 68.5514 14.1247 68.836 13.812C69.1207 13.4947 69.4684 13.2473 69.879 13.07C70.2897 12.888 70.7517 12.797 71.265 12.797C71.6897 12.797 72.0817 12.8693 72.441 13.014C72.805 13.154 73.1177 13.3593 73.379 13.63C73.645 13.896 73.8527 14.2273 74.002 14.624C74.1514 15.016 74.226 15.464 74.226 15.968C74.226 16.164 74.205 16.2947 74.163 16.36C74.121 16.4253 74.0417 16.458 73.925 16.458H69.186C69.2 16.906 69.2607 17.2957 69.368 17.627C69.48 17.9583 69.634 18.236 69.83 18.46C70.026 18.6793 70.2594 18.845 70.53 18.957C70.8007 19.0643 71.104 19.118 71.44 19.118C71.7527 19.118 72.021 19.083 72.245 19.013C72.4737 18.9383 72.6697 18.859 72.833 18.775C72.9964 18.691 73.1317 18.614 73.239 18.544C73.351 18.4693 73.4467 18.432 73.526 18.432C73.6287 18.432 73.708 18.4717 73.764 18.551L74.114 19.006ZM76.9325 13.938C77.0865 13.7653 77.2499 13.609 77.4225 13.469C77.5952 13.329 77.7772 13.21 77.9685 13.112C78.1645 13.0093 78.3699 12.9323 78.5845 12.881C78.8039 12.825 79.0395 12.797 79.2915 12.797C79.6789 12.797 80.0195 12.8623 80.3135 12.993C80.6122 13.119 80.8595 13.301 81.0555 13.539C81.2562 13.7723 81.4079 14.0547 81.5105 14.386C81.6132 14.7173 81.6645 15.0837 81.6645 15.485V20H80.4115V15.485C80.4115 14.9483 80.2879 14.533 80.0405 14.239C79.7979 13.9403 79.4269 13.791 78.9275 13.791C78.5589 13.791 78.2135 13.8797 77.8915 14.057C77.5742 14.2343 77.2802 14.4747 77.0095 14.778V20H75.7565V12.909H76.5055C76.6829 12.909 76.7925 12.9953 76.8345 13.168L76.9325 13.938ZM88.1832 14.596C87.9498 14.2833 87.6978 14.0663 87.4272 13.945C87.1565 13.819 86.8532 13.756 86.5172 13.756C85.8592 13.756 85.3528 13.9917 84.9982 14.463C84.6435 14.9343 84.4662 15.6063 84.4662 16.479C84.4662 16.941 84.5058 17.3377 84.5852 17.669C84.6645 17.9957 84.7812 18.2663 84.9352 18.481C85.0892 18.691 85.2782 18.845 85.5022 18.943C85.7262 19.041 85.9805 19.09 86.2652 19.09C86.6758 19.09 87.0328 18.9967 87.3362 18.81C87.6442 18.6233 87.9265 18.3597 88.1832 18.019V14.596ZM89.4292 9.689V20H88.6872C88.5098 20 88.3978 19.9137 88.3512 19.741L88.2392 18.88C87.9358 19.244 87.5905 19.538 87.2032 19.762C86.8158 19.986 86.3678 20.098 85.8592 20.098C85.4532 20.098 85.0845 20.021 84.7532 19.867C84.4218 19.7083 84.1395 19.4773 83.9062 19.174C83.6728 18.8707 83.4932 18.4927 83.3672 18.04C83.2412 17.5873 83.1782 17.067 83.1782 16.479C83.1782 15.9563 83.2482 15.471 83.3882 15.023C83.5282 14.5703 83.7288 14.1783 83.9902 13.847C84.2515 13.5157 84.5712 13.2567 84.9492 13.07C85.3318 12.8787 85.7612 12.783 86.2372 12.783C86.6712 12.783 87.0422 12.8577 87.3502 13.007C87.6628 13.1517 87.9405 13.3547 88.1832 13.616V9.689H89.4292ZM98.2342 15.17C98.6215 15.17 98.9622 15.1187 99.2562 15.016C99.5549 14.9133 99.8045 14.771 100.005 14.589C100.211 14.4023 100.365 14.1807 100.467 13.924C100.57 13.6673 100.621 13.385 100.621 13.077C100.621 12.4377 100.423 11.9383 100.026 11.579C99.6342 11.2197 99.0369 11.04 98.2342 11.04H96.6242V15.17H98.2342ZM98.2342 9.969C98.8689 9.969 99.4195 10.0437 99.8862 10.193C100.358 10.3377 100.747 10.5453 101.055 10.816C101.363 11.0867 101.592 11.4133 101.741 11.796C101.895 12.1787 101.972 12.6057 101.972 13.077C101.972 13.5437 101.891 13.9707 101.727 14.358C101.564 14.7453 101.324 15.079 101.006 15.359C100.694 15.639 100.304 15.8583 99.8372 16.017C99.3752 16.171 98.8409 16.248 98.2342 16.248H96.6242V20H95.2732V9.969H98.2342ZM107.012 16.808C106.438 16.8267 105.948 16.8733 105.542 16.948C105.14 17.018 104.811 17.1113 104.555 17.228C104.303 17.3447 104.118 17.4823 104.002 17.641C103.89 17.7997 103.834 17.977 103.834 18.173C103.834 18.3597 103.864 18.5207 103.925 18.656C103.985 18.7913 104.067 18.9033 104.17 18.992C104.277 19.076 104.401 19.139 104.541 19.181C104.685 19.2183 104.839 19.237 105.003 19.237C105.222 19.237 105.423 19.216 105.605 19.174C105.787 19.1273 105.957 19.062 106.116 18.978C106.279 18.894 106.433 18.7937 106.578 18.677C106.727 18.5603 106.872 18.4273 107.012 18.278V16.808ZM102.987 13.91C103.379 13.532 103.801 13.2497 104.254 13.063C104.706 12.8763 105.208 12.783 105.759 12.783C106.155 12.783 106.508 12.8483 106.816 12.979C107.124 13.1097 107.383 13.2917 107.593 13.525C107.803 13.7583 107.961 14.0407 108.069 14.372C108.176 14.7033 108.23 15.0673 108.23 15.464V20H107.677C107.555 20 107.462 19.9813 107.397 19.944C107.331 19.902 107.28 19.8227 107.243 19.706L107.103 19.034C106.916 19.2067 106.734 19.3607 106.557 19.496C106.379 19.6267 106.193 19.7387 105.997 19.832C105.801 19.9207 105.591 19.9883 105.367 20.035C105.147 20.0863 104.902 20.112 104.632 20.112C104.356 20.112 104.097 20.0747 103.855 20C103.612 19.9207 103.4 19.804 103.218 19.65C103.04 19.496 102.898 19.3023 102.791 19.069C102.688 18.831 102.637 18.551 102.637 18.229C102.637 17.949 102.714 17.6807 102.868 17.424C103.022 17.1627 103.271 16.9317 103.617 16.731C103.962 16.5303 104.412 16.367 104.968 16.241C105.523 16.1103 106.204 16.0357 107.012 16.017V15.464C107.012 14.9133 106.893 14.498 106.655 14.218C106.417 13.9333 106.069 13.791 105.612 13.791C105.304 13.791 105.045 13.8307 104.835 13.91C104.629 13.9847 104.45 14.071 104.296 14.169C104.146 14.2623 104.016 14.3487 103.904 14.428C103.796 14.5027 103.689 14.54 103.582 14.54C103.498 14.54 103.425 14.519 103.365 14.477C103.304 14.4303 103.253 14.3743 103.211 14.309L102.987 13.91ZM116.082 12.909L112.127 22.093C112.085 22.1863 112.031 22.261 111.966 22.317C111.905 22.373 111.809 22.401 111.679 22.401H110.755L112.05 19.587L109.124 12.909H110.202C110.309 12.909 110.393 12.937 110.454 12.993C110.519 13.0443 110.563 13.1027 110.587 13.168L112.484 17.634C112.558 17.83 112.621 18.0353 112.673 18.25C112.738 18.0307 112.808 17.823 112.883 17.627L114.724 13.168C114.752 13.0933 114.798 13.0327 114.864 12.986C114.934 12.9347 115.011 12.909 115.095 12.909H116.082ZM117.182 20V12.909H117.931C118.109 12.909 118.218 12.9953 118.26 13.168L118.351 13.896C118.613 13.574 118.907 13.3103 119.233 13.105C119.56 12.8997 119.938 12.797 120.367 12.797C120.843 12.797 121.228 12.93 121.522 13.196C121.821 13.462 122.036 13.8213 122.166 14.274C122.269 14.0173 122.4 13.7957 122.558 13.609C122.722 13.4223 122.904 13.2683 123.104 13.147C123.305 13.0257 123.517 12.937 123.741 12.881C123.97 12.825 124.201 12.797 124.434 12.797C124.808 12.797 125.139 12.8577 125.428 12.979C125.722 13.0957 125.97 13.2683 126.17 13.497C126.376 13.7257 126.532 14.008 126.639 14.344C126.747 14.6753 126.8 15.0557 126.8 15.485V20H125.547V15.485C125.547 14.9297 125.426 14.5097 125.183 14.225C124.941 13.9357 124.591 13.791 124.133 13.791C123.928 13.791 123.732 13.8283 123.545 13.903C123.363 13.973 123.202 14.078 123.062 14.218C122.922 14.358 122.81 14.5353 122.726 14.75C122.647 14.96 122.607 15.205 122.607 15.485V20H121.354V15.485C121.354 14.9157 121.24 14.491 121.011 14.211C120.783 13.931 120.449 13.791 120.01 13.791C119.702 13.791 119.418 13.875 119.156 14.043C118.895 14.2063 118.655 14.4303 118.435 14.715V20H117.182ZM133.44 15.681C133.44 15.3917 133.398 15.128 133.314 14.89C133.235 14.6473 133.116 14.4397 132.957 14.267C132.803 14.0897 132.614 13.9543 132.39 13.861C132.166 13.763 131.912 13.714 131.627 13.714C131.03 13.714 130.556 13.889 130.206 14.239C129.861 14.5843 129.646 15.065 129.562 15.681H133.44ZM134.448 19.006C134.294 19.1927 134.11 19.356 133.895 19.496C133.68 19.6313 133.449 19.7433 133.202 19.832C132.959 19.9207 132.707 19.986 132.446 20.028C132.185 20.0747 131.926 20.098 131.669 20.098C131.179 20.098 130.726 20.0163 130.311 19.853C129.9 19.685 129.543 19.4423 129.24 19.125C128.941 18.803 128.708 18.4063 128.54 17.935C128.372 17.4637 128.288 16.9223 128.288 16.311C128.288 15.8163 128.363 15.3543 128.512 14.925C128.666 14.4957 128.885 14.1247 129.17 13.812C129.455 13.4947 129.802 13.2473 130.213 13.07C130.624 12.888 131.086 12.797 131.599 12.797C132.024 12.797 132.416 12.8693 132.775 13.014C133.139 13.154 133.452 13.3593 133.713 13.63C133.979 13.896 134.187 14.2273 134.336 14.624C134.485 15.016 134.56 15.464 134.56 15.968C134.56 16.164 134.539 16.2947 134.497 16.36C134.455 16.4253 134.376 16.458 134.259 16.458H129.52C129.534 16.906 129.595 17.2957 129.702 17.627C129.814 17.9583 129.968 18.236 130.164 18.46C130.36 18.6793 130.593 18.845 130.864 18.957C131.135 19.0643 131.438 19.118 131.774 19.118C132.087 19.118 132.355 19.083 132.579 19.013C132.808 18.9383 133.004 18.859 133.167 18.775C133.33 18.691 133.466 18.614 133.573 18.544C133.685 18.4693 133.781 18.432 133.86 18.432C133.963 18.432 134.042 18.4717 134.098 18.551L134.448 19.006ZM137.267 13.938C137.421 13.7653 137.584 13.609 137.757 13.469C137.929 13.329 138.111 13.21 138.303 13.112C138.499 13.0093 138.704 12.9323 138.919 12.881C139.138 12.825 139.374 12.797 139.626 12.797C140.013 12.797 140.354 12.8623 140.648 12.993C140.946 13.119 141.194 13.301 141.39 13.539C141.59 13.7723 141.742 14.0547 141.845 14.386C141.947 14.7173 141.999 15.0837 141.999 15.485V20H140.746V15.485C140.746 14.9483 140.622 14.533 140.375 14.239C140.132 13.9403 139.761 13.791 139.262 13.791C138.893 13.791 138.548 13.8797 138.226 14.057C137.908 14.2343 137.614 14.4747 137.344 14.778V20H136.091V12.909H136.84C137.017 12.909 137.127 12.9953 137.169 13.168L137.267 13.938ZM145.978 20.112C145.418 20.112 144.987 19.9557 144.683 19.643C144.385 19.3303 144.235 18.88 144.235 18.292V13.952H143.381C143.307 13.952 143.244 13.931 143.192 13.889C143.141 13.8423 143.115 13.7723 143.115 13.679V13.182L144.277 13.035L144.564 10.844C144.578 10.774 144.609 10.718 144.655 10.676C144.707 10.6293 144.772 10.606 144.851 10.606H145.481V13.049H147.532V13.952H145.481V18.208C145.481 18.5067 145.554 18.7283 145.698 18.873C145.843 19.0177 146.03 19.09 146.258 19.09C146.389 19.09 146.501 19.0737 146.594 19.041C146.692 19.0037 146.776 18.964 146.846 18.922C146.916 18.88 146.975 18.8427 147.021 18.81C147.073 18.7727 147.117 18.754 147.154 18.754C147.22 18.754 147.278 18.7937 147.329 18.873L147.693 19.468C147.479 19.6687 147.22 19.8273 146.916 19.944C146.613 20.056 146.3 20.112 145.978 20.112Z" fill="#E2C626"/>
</svg>
